<svg width="54" height="55" viewBox="0 0 54 55" fill="none" xmlns="http://www.w3.org/2000/svg">
<mask id="mask0_1_246" style="mask-type:luminance" maskUnits="userSpaceOnUse" x="0" y="0" width="54" height="55">
<path d="M53.2174 0H0V54.6957H53.2174V0Z" fill="white"/>
</mask>
<g mask="url(#mask0_1_246)">
<path d="M26.0051 53.385C40.3673 53.385 52.0102 41.7422 52.0102 27.3798C52.0102 13.0176 40.3673 1.37476 26.0051 1.37476C11.6429 1.37476 0 13.0176 0 27.3798C0 41.7422 11.6429 53.385 26.0051 53.385Z" fill="white" fill-opacity="0.4"/>
<path d="M31.0949 11.3207C31.0949 10.6621 30.2987 10.3325 29.8332 10.798L12.8771 27.7541C12.6991 27.9324 12.5779 28.1593 12.5288 28.4064C12.4798 28.6535 12.505 28.9096 12.6013 29.1423C12.6977 29.3752 12.8609 29.5741 13.0703 29.7141C13.2797 29.8543 13.5259 29.9291 13.7778 29.9293H20.1763C20.5845 29.9293 20.9155 30.2603 20.9155 30.6685V43.4398C20.9155 44.0982 21.7115 44.428 22.1772 43.9623L39.1333 27.0064C39.3112 26.8281 39.4324 26.601 39.4815 26.354C39.5306 26.1069 39.5053 25.8508 39.4089 25.618C39.3126 25.3853 39.1494 25.1863 38.94 25.0462C38.7306 24.9062 38.4844 24.8313 38.2325 24.8311H31.834C31.4259 24.8311 31.0949 24.5001 31.0949 24.092V11.3207Z" fill="white"/>
</g>
</svg>
