<svg width="1920" height="1022" viewBox="0 0 1920 1022" fill="none" xmlns="http://www.w3.org/2000/svg">
<path opacity="0.0144928" d="M1663.28 1995.82C1671.36 2002.15 1682.7 2002.31 1691.05 1996.21L1973.45 1789.59C1978.34 1786.01 1981.65 1780.65 1982.64 1774.68L2064.78 1281.08C2065.56 1276.4 2064.88 1271.6 2062.82 1267.34L1873.03 874.263C1869.27 866.483 1861.44 861.503 1852.78 861.382L1549.1 857.14C1540.44 857.019 1532.41 861.776 1528.33 869.448L1322.2 1257C1319.97 1261.19 1319.09 1265.97 1319.67 1270.67L1381.12 1766.28C1381.86 1772.27 1384.94 1777.72 1389.68 1781.43L1663.28 1995.82Z" stroke="url(#paint0_linear_82_10055)" stroke-width="4"/>
<path opacity="0.0289855" d="M1609.98 1984.97C1617.71 1991.7 1629 1992.45 1637.64 1986.82L1928.5 1797.11C1933.58 1793.79 1937.17 1788.62 1938.47 1782.7L2045.4 1298.43C2046.42 1293.78 2045.99 1288.94 2044.14 1284.57L1876.04 885.575C1872.69 877.619 1865.14 872.244 1856.5 871.667L1555.39 851.561C1546.75 850.984 1538.49 855.303 1534.02 862.737L1309.53 1235.52C1307.07 1239.6 1305.93 1244.34 1306.27 1249.07L1341.74 1742.86C1342.18 1748.89 1344.97 1754.49 1349.53 1758.45L1609.98 1984.97Z" stroke="url(#paint1_linear_82_10055)" stroke-width="4"/>
<path opacity="0.0434783" d="M1557.38 1972.55C1564.75 1979.65 1575.96 1981 1584.86 1975.85L1883.19 1803.39C1888.45 1800.35 1892.3 1795.37 1893.92 1789.52L2024.87 1315.83C2026.14 1311.23 2025.95 1306.36 2024.33 1301.89L1877.99 898.168C1875.05 890.057 1867.8 884.302 1859.21 883.272L1561.47 847.547C1552.89 846.517 1544.43 850.386 1539.57 857.561L1297.69 1214.71C1295.02 1218.66 1293.63 1223.34 1293.73 1228.1L1303.59 1718.69C1303.71 1724.74 1306.22 1730.49 1310.58 1734.68L1557.38 1972.55Z" stroke="url(#paint2_linear_82_10055)" stroke-width="4"/>
<path opacity="0.057971" d="M1505.57 1958.63C1512.55 1966.08 1523.64 1968.01 1532.79 1963.36L1837.59 1808.42C1843.01 1805.66 1847.13 1800.89 1849.05 1795.13L2003.19 1333.21C2004.7 1328.68 2004.77 1323.79 2003.37 1319.24L1878.82 911.968C1876.3 903.725 1869.36 897.606 1860.85 896.127L1567.27 845.071C1558.76 843.591 1550.12 846.999 1544.89 853.895L1286.66 1194.59C1283.77 1198.41 1282.14 1203.02 1281.99 1207.79L1266.7 1693.85C1266.51 1699.91 1268.72 1705.79 1272.86 1710.21L1505.57 1958.63Z" stroke="url(#paint3_linear_82_10055)" stroke-width="4"/>
<path opacity="0.0724638" d="M1454.62 1943.25C1461.2 1951.03 1472.14 1953.54 1481.49 1949.4L1791.77 1812.19C1797.33 1809.73 1801.7 1805.17 1803.93 1799.52L1980.38 1350.53C1982.13 1346.07 1982.45 1341.18 1981.29 1336.54L1878.47 926.906C1876.37 918.551 1869.76 912.087 1861.35 910.163L1572.71 844.103C1564.3 842.179 1555.5 845.118 1549.92 851.716L1276.38 1175.22L1274.86 1173.93L1276.38 1175.22C1273.29 1178.88 1271.41 1183.41 1271.01 1188.18L1231.09 1668.42C1230.58 1674.47 1232.5 1680.46 1236.41 1685.1L1454.62 1943.25Z" stroke="url(#paint4_linear_82_10055)" stroke-width="4"/>
<path opacity="0.0869565" d="M1404.6 1926.48C1410.76 1934.57 1421.52 1937.64 1431.06 1934.02L1745.79 1814.71C1751.49 1812.55 1756.1 1808.23 1758.62 1802.69L1956.45 1367.71C1958.44 1363.33 1959.01 1358.45 1958.08 1353.74L1876.88 942.903C1875.21 934.461 1868.96 927.669 1860.67 925.306L1577.7 844.609C1569.41 842.246 1560.49 844.709 1554.58 850.989L1266.82 1156.61C1263.52 1160.11 1261.41 1164.56 1260.76 1169.31L1196.78 1642.46C1195.96 1648.49 1197.57 1654.59 1201.25 1659.42L1404.6 1926.48Z" stroke="url(#paint5_linear_82_10055)" stroke-width="4"/>
<path opacity="0.101449" d="M1355.57 1908.38C1361.3 1916.75 1371.85 1920.37 1381.54 1917.29L1699.73 1815.97C1705.54 1814.12 1710.38 1810.05 1713.19 1804.64L1931.41 1384.69C1933.63 1380.41 1934.46 1375.55 1933.76 1370.79L1874.02 959.884C1872.78 951.375 1866.89 944.276 1858.75 941.482L1582.17 846.551C1574.03 843.757 1565.01 845.737 1558.78 851.683L1257.92 1138.81C1254.43 1142.14 1252.08 1146.48 1251.19 1151.21L1163.79 1616.06C1162.67 1622.05 1163.96 1628.24 1167.4 1633.26L1355.57 1908.38Z" stroke="url(#paint6_linear_82_10055)" stroke-width="4"/>
<path opacity="0.115942" d="M1307.6 1889.01C1312.88 1897.65 1323.2 1901.81 1333.01 1899.26L1653.65 1815.99C1659.56 1814.46 1664.62 1810.64 1667.71 1805.38L1905.29 1401.42C1907.74 1397.25 1908.81 1392.42 1908.36 1387.61L1869.83 977.767C1869.03 969.215 1863.52 961.827 1855.55 958.612L1586.06 849.885C1578.09 846.67 1568.99 848.163 1562.46 853.757L1249.65 1121.85C1245.97 1124.99 1243.39 1129.21 1242.25 1133.91L1132.14 1589.3C1130.71 1595.23 1131.69 1601.49 1134.88 1606.69L1307.6 1889.01Z" stroke="url(#paint7_linear_82_10055)" stroke-width="4"/>
<path opacity="0.130435" d="M1260.75 1868.46C1265.57 1877.33 1275.62 1882.02 1285.52 1880.01L1607.62 1814.77C1613.61 1813.56 1618.87 1810.01 1622.24 1804.91L1878.1 1417.83C1880.77 1413.79 1882.1 1409 1881.89 1404.16L1864.29 996.471C1863.92 987.898 1858.8 980.245 1851.03 976.618L1589.29 854.567C1581.51 850.941 1572.36 851.945 1565.56 857.172L1241.94 1105.74L1240.72 1104.16L1241.94 1105.74C1238.09 1108.7 1235.28 1112.79 1233.9 1117.44L1101.84 1562.25C1100.1 1568.11 1100.76 1574.42 1103.68 1579.79L1260.75 1868.46Z" stroke="url(#paint8_linear_82_10055)" stroke-width="4"/>
<path opacity="0.144928" d="M1215.07 1846.8C1219.43 1855.88 1229.18 1861.07 1239.13 1859.61L1561.7 1812.33C1567.75 1811.45 1573.2 1808.18 1576.84 1803.26L1849.86 1433.87C1852.75 1429.96 1854.33 1425.23 1854.37 1420.37L1857.35 1015.91C1857.41 1007.34 1852.71 999.444 1845.15 995.418L1591.79 860.547C1584.23 856.521 1575.06 857.035 1568 861.88L1234.75 1090.52C1230.74 1093.27 1227.71 1097.23 1226.09 1101.81L1072.89 1534.99C1070.85 1540.76 1071.19 1547.11 1073.84 1552.63L1215.07 1846.8Z" stroke="url(#paint9_linear_82_10055)" stroke-width="4"/>
<path opacity="0.15942" d="M1170.6 1824.09C1174.49 1833.35 1183.92 1839.03 1193.9 1838.12L1515.95 1808.69C1522.05 1808.13 1527.67 1805.16 1531.57 1800.43L1820.62 1449.49C1823.72 1445.73 1825.54 1441.07 1825.83 1436.19L1849 1036.01C1849.49 1027.46 1845.21 1019.34 1837.88 1014.93L1593.51 867.774C1586.19 863.361 1577.02 863.384 1569.72 867.835L1228.04 1076.21C1223.88 1078.75 1220.63 1082.55 1218.76 1087.06L1045.29 1507.59C1042.95 1513.26 1042.97 1519.63 1045.34 1525.29L1170.6 1824.09Z" stroke="url(#paint10_linear_82_10055)" stroke-width="4"/>
<path opacity="0.173913" d="M1127.4 1800.42C1130.8 1809.84 1139.88 1815.98 1149.87 1815.61L1470.44 1803.86C1476.57 1803.64 1482.35 1800.96 1486.5 1796.43L1790.38 1464.63C1793.69 1461.02 1795.76 1456.44 1796.29 1451.56L1839.2 1056.67C1840.12 1048.17 1836.27 1039.85 1829.2 1035.07L1594.39 876.19C1587.32 871.404 1578.19 870.939 1570.67 874.982L1221.75 1062.82C1217.44 1065.14 1213.98 1068.78 1211.88 1073.21L1019.03 1480.14C1016.4 1485.69 1016.09 1492.07 1018.18 1497.86L1127.4 1800.42Z" stroke="url(#paint11_linear_82_10055)" stroke-width="4"/>
<path opacity="0.188406" d="M1085.51 1775.86C1088.42 1785.41 1097.13 1792 1107.07 1792.18L1425.22 1797.87C1431.36 1797.98 1437.29 1795.62 1441.68 1791.31L1759.2 1479.24C1762.71 1475.8 1765.02 1471.31 1765.8 1466.45L1827.95 1077.82C1829.29 1069.39 1825.88 1060.89 1819.08 1055.75L1594.37 885.739C1587.57 880.595 1578.5 879.645 1570.79 883.271L1215.82 1050.37C1211.38 1052.46 1207.72 1055.92 1205.39 1060.26L994.113 1452.7C991.194 1458.12 990.563 1464.5 992.362 1470.39L1085.51 1775.86Z" stroke="url(#paint12_linear_82_10055)" stroke-width="4"/>
<path opacity="0.202899" d="M1044.95 1750.5C1047.36 1760.16 1055.68 1767.17 1065.56 1767.88L1380.36 1790.75C1386.5 1791.2 1392.55 1789.15 1397.17 1785.07L1727.1 1493.28C1730.8 1490.01 1733.35 1485.63 1734.37 1480.79L1815.22 1099.36C1816.99 1091.02 1814.03 1082.38 1807.52 1076.89L1593.39 896.36C1586.89 890.874 1577.9 889.444 1570.03 892.642L1210.21 1038.87C1205.65 1040.72 1201.8 1044.01 1199.23 1048.23L970.523 1425.36C967.324 1430.64 966.368 1436.99 967.87 1442.98L1044.95 1750.5Z" stroke="url(#paint13_linear_82_10055)" stroke-width="4"/>
<path opacity="0.217391" d="M1005.75 1724.42C1007.68 1734.15 1015.57 1741.56 1025.36 1742.81L1335.91 1782.53C1342.02 1783.31 1348.19 1781.59 1353.02 1777.75L1694.12 1506.69C1698 1503.6 1700.79 1499.34 1702.06 1494.54L1801.02 1121.21C1803.2 1112.98 1800.69 1104.21 1794.49 1098.4L1591.42 907.99C1585.23 902.179 1576.35 900.275 1568.34 903.037L1204.87 1028.33C1200.19 1029.94 1196.16 1033.03 1193.37 1037.14L948.243 1398.19C944.77 1403.31 943.49 1409.61 944.692 1415.69L1005.75 1724.42Z" stroke="url(#paint14_linear_82_10055)" stroke-width="4"/>
<path opacity="0.231884" d="M967.949 1697.71C969.378 1707.49 976.841 1715.26 986.506 1717.04L1291.92 1773.23C1297.99 1774.35 1304.26 1772.96 1309.29 1769.37L1660.31 1519.43C1664.37 1516.54 1667.38 1512.41 1668.9 1507.65L1785.33 1143.29C1787.92 1135.19 1785.87 1126.32 1780 1120.2L1588.41 920.563C1582.54 914.446 1573.8 912.075 1565.67 914.394L1199.74 1018.76C1194.96 1020.12 1190.75 1023.01 1187.74 1026.98L927.253 1371.26C923.515 1376.2 921.913 1382.45 922.81 1388.59L967.949 1697.71Z" stroke="url(#paint15_linear_82_10055)" stroke-width="4"/>
<path opacity="0.246377" d="M931.558 1670.43C932.491 1680.24 939.502 1688.36 949.014 1690.66L1248.45 1762.9C1254.46 1764.35 1260.8 1763.29 1266.03 1759.97L1625.7 1531.46C1629.92 1528.78 1633.16 1524.79 1634.92 1520.09L1768.16 1165.5C1771.15 1157.56 1769.56 1148.61 1764.03 1142.21L1584.32 934.014C1578.79 927.609 1570.21 924.781 1561.99 926.652L1194.76 1010.17L1194.32 1008.21L1194.76 1010.17C1189.9 1011.27 1185.52 1013.94 1182.3 1017.78L907.527 1344.64C903.531 1349.4 901.61 1355.57 902.199 1361.77L931.558 1670.43Z" stroke="url(#paint16_linear_82_10055)" stroke-width="4"/>
<path opacity="0.26087" d="M896.596 1642.69C897.035 1652.5 903.578 1660.94 912.908 1663.74L1205.55 1751.57C1211.48 1753.35 1217.88 1752.64 1223.29 1749.59L1590.35 1542.74C1594.72 1540.27 1598.17 1536.43 1600.18 1531.81L1749.52 1187.77C1752.9 1180 1751.78 1171 1746.6 1164.33L1579.12 948.273C1573.94 941.599 1565.55 938.325 1557.25 939.743L1189.89 1002.54C1184.96 1003.39 1180.43 1005.84 1177 1009.52L889.039 1318.41C884.795 1322.96 882.558 1329.04 882.837 1335.28L896.596 1642.69Z" stroke="url(#paint17_linear_82_10055)" stroke-width="4"/>
<path opacity="0.275362" d="M863.069 1614.57C863.017 1624.34 869.077 1633.07 878.199 1636.36L1163.25 1739.28C1169.09 1741.39 1175.53 1741.02 1181.1 1738.26L1554.29 1553.23C1558.8 1550.99 1562.47 1547.32 1564.71 1542.78L1729.42 1210.01C1733.17 1202.43 1732.52 1193.4 1727.71 1186.48L1572.76 963.272C1567.96 956.35 1559.77 952.64 1551.43 953.603L1185.08 995.893C1180.08 996.47 1175.41 998.687 1171.78 1002.2L871.753 1292.62C867.272 1296.96 864.723 1302.94 864.69 1309.19L863.069 1614.57Z" stroke="url(#paint18_linear_82_10055)" stroke-width="4"/>
<path opacity="0.289855" d="M830.986 1586.14C830.448 1595.86 836.013 1604.85 844.901 1608.62L1121.61 1726.08C1127.34 1728.51 1133.8 1728.49 1139.53 1726.02L1517.57 1562.9C1522.22 1560.89 1526.09 1557.4 1528.57 1552.96L1707.88 1232.13C1712 1224.77 1711.8 1215.74 1707.38 1208.59L1565.24 978.94C1560.81 971.79 1552.86 967.658 1544.5 968.164L1180.27 990.211C1175.22 990.516 1170.42 992.493 1166.59 995.833L855.638 1267.34C850.929 1271.45 848.074 1277.31 847.728 1283.57L830.986 1586.14Z" stroke="url(#paint19_linear_82_10055)" stroke-width="4"/>
<path opacity="0.304348" d="M800.347 1557.5C799.329 1567.13 804.389 1576.36 813.016 1580.59L1080.67 1712C1086.27 1714.75 1092.74 1715.08 1098.6 1712.91L1480.25 1571.72C1485.02 1569.96 1489.09 1566.65 1491.8 1562.31L1684.91 1254.06C1689.38 1246.93 1689.65 1237.92 1685.62 1230.57L1556.52 995.204C1552.49 987.848 1544.78 983.308 1536.43 983.357L1175.41 985.488C1170.33 985.518 1165.4 987.246 1161.39 990.401L840.653 1242.64C835.729 1246.52 832.573 1252.23 831.914 1258.48L800.347 1557.5Z" stroke="url(#paint20_linear_82_10055)" stroke-width="4"/>
<path opacity="0.318841" d="M771.147 1528.72C769.657 1538.25 774.202 1547.68 782.544 1552.36L1040.47 1697.1C1045.91 1700.16 1052.37 1700.84 1058.35 1698.98L1442.38 1579.67C1447.26 1578.15 1451.51 1575.04 1454.45 1570.82L1660.54 1275.72C1665.36 1268.83 1666.09 1259.88 1662.45 1252.34L1546.59 1011.99C1542.95 1004.45 1535.52 999.52 1527.2 999.114L1170.46 981.716C1165.36 981.468 1160.32 982.94 1156.13 985.899L826.756 1218.58C821.628 1222.2 818.179 1227.77 817.206 1233.99L771.147 1528.72Z" stroke="url(#paint21_linear_82_10055)" stroke-width="4"/>
<path opacity="0.333333" d="M743.377 1499.88C741.423 1509.29 745.446 1518.89 753.481 1524L1001.03 1681.43C1006.31 1684.78 1012.74 1685.81 1018.82 1684.27L1404 1586.71C1408.98 1585.44 1413.41 1582.54 1416.57 1578.46L1634.81 1297.03C1639.94 1290.41 1641.13 1281.52 1637.9 1273.82L1535.42 1029.23C1532.19 1021.53 1525.06 1016.22 1516.79 1015.36L1165.35 978.882C1160.25 978.353 1155.12 979.561 1150.76 982.315L813.901 1195.2C808.582 1198.56 804.846 1203.96 803.563 1210.14L743.377 1499.88Z" stroke="url(#paint22_linear_82_10055)" stroke-width="4"/>
<path opacity="0.347826" d="M717.026 1471.08C714.618 1480.33 718.115 1490.08 725.82 1495.6L962.398 1665.02C967.496 1668.67 973.874 1670.05 980.044 1668.83L1365.17 1592.82C1370.24 1591.82 1374.84 1589.13 1378.22 1585.19L1607.74 1317.92C1613.18 1311.57 1614.82 1302.79 1612.01 1294.94L1523.02 1046.86C1520.21 1039.01 1513.39 1033.35 1505.19 1032.04L1160.06 976.97C1154.97 976.158 1149.75 977.097 1145.23 979.636L802.043 1172.57C796.545 1175.66 792.531 1180.88 790.939 1187L717.026 1471.08Z" stroke="url(#paint23_linear_82_10055)" stroke-width="4"/>
<path opacity="0.362319" d="M692.074 1442.38C689.224 1451.46 692.189 1461.32 699.544 1467.23L924.598 1647.93C929.499 1651.87 935.808 1653.59 942.048 1652.71L1325.95 1597.99C1331.09 1597.26 1335.84 1594.8 1339.44 1591.01L1579.36 1338.31C1585.11 1332.26 1587.18 1323.59 1584.79 1315.63L1509.37 1064.79C1506.98 1056.83 1500.49 1050.82 1492.4 1049.07L1154.52 975.963C1149.46 974.868 1144.16 975.532 1139.5 977.846L791.128 1150.74C785.465 1153.55 781.183 1158.56 779.284 1164.61L692.074 1442.38Z" stroke="url(#paint24_linear_82_10055)" stroke-width="4"/>
<path opacity="0.376812" d="M668.501 1413.87C665.221 1422.75 667.653 1432.7 674.638 1438.97L887.658 1630.22C892.346 1634.43 898.568 1636.5 904.861 1635.95L1286.39 1602.2C1291.59 1601.74 1296.49 1599.52 1300.29 1595.9L1549.74 1358.14C1555.76 1352.4 1558.27 1343.87 1556.3 1335.81L1494.48 1082.95C1492.51 1074.9 1486.37 1068.57 1478.41 1066.38L1148.69 975.841C1143.67 974.463 1138.32 974.846 1133.52 976.928L781.104 1129.75C775.291 1132.27 770.75 1137.07 768.548 1143.03L668.501 1413.87Z" stroke="url(#paint25_linear_82_10055)" stroke-width="4"/>
<path opacity="0.391304" d="M646.281 1385.61C642.583 1394.28 644.482 1404.28 651.08 1410.9L851.601 1611.94C856.06 1616.41 862.177 1618.82 868.505 1618.6L1246.54 1605.44C1251.79 1605.26 1256.82 1603.28 1260.82 1599.84L1518.9 1377.33C1525.19 1371.91 1528.12 1363.55 1526.57 1355.42L1478.34 1101.28C1476.8 1093.16 1471.02 1086.53 1463.21 1083.91L1142.54 976.581C1137.57 974.92 1132.18 975.019 1127.25 976.86L771.916 1109.64C765.967 1111.87 761.177 1116.45 758.678 1122.3L646.281 1385.61Z" stroke="url(#paint26_linear_82_10055)" stroke-width="4"/>
<path opacity="0.405797" d="M625.383 1357.7C621.281 1366.12 622.648 1376.16 628.842 1383.09L816.446 1593.14C820.663 1597.86 826.655 1600.6 833.001 1600.72L1206.47 1607.7C1211.74 1607.8 1216.9 1606.07 1221.09 1602.82L1486.89 1395.83C1493.43 1390.75 1496.77 1382.57 1495.66 1374.39L1460.97 1119.71C1459.86 1111.53 1454.46 1104.62 1446.82 1101.59L1136.01 978.16C1131.12 976.218 1125.7 976.027 1120.65 977.621L763.505 1090.47C757.437 1092.38 752.41 1096.73 749.617 1102.46L625.383 1357.7Z" stroke="url(#paint27_linear_82_10055)" stroke-width="4"/>
<path opacity="0.42029" d="M605.774 1330.18C601.284 1338.35 602.121 1348.39 607.896 1355.62L782.211 1573.87C786.172 1578.83 792.022 1581.9 798.367 1582.36L1166.22 1608.97C1171.51 1609.35 1176.78 1607.89 1181.14 1604.83L1453.78 1413.58C1460.54 1408.84 1464.28 1400.87 1463.6 1392.67L1442.37 1138.16C1441.68 1129.96 1436.67 1122.78 1429.23 1119.34L1129.06 980.55C1124.26 978.329 1118.83 977.847 1113.68 979.185L755.814 1072.25C749.64 1073.86 744.388 1077.95 741.309 1083.56L605.774 1330.18Z" stroke="url(#paint28_linear_82_10055)" stroke-width="4"/>
<path opacity="0.434783" d="M587.416 1303.14C582.553 1311.04 582.864 1321.04 588.207 1328.54L748.911 1554.19C752.602 1559.37 758.291 1562.77 764.618 1563.57L1125.85 1609.25C1131.14 1609.92 1136.51 1608.73 1141.05 1605.87L1419.6 1430.52C1426.57 1426.13 1430.7 1418.38 1430.45 1410.18L1422.55 1156.56C1422.29 1148.36 1417.69 1140.95 1410.47 1137.11L1121.67 983.722C1116.97 981.226 1111.54 980.45 1106.3 981.526L748.779 1055.04C742.518 1056.33 737.053 1060.16 733.694 1065.61L587.416 1303.14Z" stroke="url(#paint29_linear_82_10055)" stroke-width="4"/>
<path opacity="0.449275" d="M570.268 1276.64C565.048 1284.24 564.84 1294.19 569.738 1301.94L716.555 1534.15C719.964 1539.54 725.476 1543.25 731.765 1544.39L1085.42 1608.54C1090.7 1609.5 1096.16 1608.58 1100.85 1605.94L1384.43 1446.59C1391.58 1442.57 1396.09 1435.06 1396.26 1426.88L1401.53 1174.86C1401.7 1166.67 1397.52 1159.05 1390.53 1154.83L1113.78 987.646C1109.2 984.879 1103.79 983.808 1098.48 984.617L742.34 1038.85C736.007 1039.82 730.343 1043.37 726.711 1048.67L570.268 1276.64Z" stroke="url(#paint30_linear_82_10055)" stroke-width="4"/>
<path opacity="0.463768" d="M554.285 1250.74C548.726 1258.03 548.005 1267.9 552.448 1275.87L685.152 1513.81C688.267 1519.39 693.583 1523.41 699.817 1524.89L1044.99 1606.85C1050.23 1608.1 1055.76 1607.46 1060.6 1605.05L1348.31 1461.75C1355.64 1458.1 1360.5 1450.86 1361.1 1442.72L1379.34 1192.98C1379.94 1184.84 1376.17 1177.02 1369.45 1172.43L1105.37 992.29C1100.92 989.258 1095.54 987.89 1090.17 988.426L736.432 1023.72C730.044 1024.35 724.195 1027.63 720.298 1032.74L554.285 1250.74Z" stroke="url(#paint31_linear_82_10055)" stroke-width="4"/>
<path opacity="0.478261" d="M539.421 1225.5C533.541 1232.47 532.316 1242.23 536.295 1250.39L654.707 1493.22C657.518 1498.98 662.621 1503.3 668.781 1505.11L1004.6 1604.18C1009.8 1605.71 1015.38 1605.36 1020.36 1603.18L1311.31 1475.95C1318.79 1472.68 1324 1465.72 1325.01 1457.65L1356 1210.86C1357.02 1202.78 1353.68 1194.79 1347.24 1189.85L1096.4 997.62C1092.1 994.328 1086.77 992.664 1081.35 992.923L730.993 1009.66C724.566 1009.96 718.547 1012.94 714.394 1017.87L539.421 1225.5Z" stroke="url(#paint32_linear_82_10055)" stroke-width="4"/>
<path opacity="0.492754" d="M525.625 1200.97C519.443 1207.61 517.722 1217.24 521.229 1225.57L625.221 1472.44C627.717 1478.36 632.592 1482.96 638.66 1485.11L964.31 1600.54C969.447 1602.36 975.073 1602.29 980.184 1600.36L1273.5 1489.16C1281.11 1486.27 1286.65 1479.61 1288.07 1471.62L1331.54 1228.44C1332.96 1220.45 1330.07 1212.32 1323.92 1207.04L1086.84 1003.6C1082.71 1000.05 1077.45 998.097 1071.99 998.075L725.954 996.689C719.507 996.663 713.332 999.339 708.933 1004.06L525.625 1200.97Z" stroke="url(#paint33_linear_82_10055)" stroke-width="4"/>
<path opacity="0.507246" d="M512.843 1177.22C506.377 1183.51 504.172 1192.98 507.202 1201.45L596.693 1451.52C598.864 1457.59 603.495 1462.46 609.453 1464.94L924.174 1595.94C929.234 1598.05 934.888 1598.27 940.115 1596.59L1234.94 1501.32C1242.66 1498.83 1248.5 1492.48 1250.34 1484.59L1305.98 1245.66C1307.81 1237.78 1305.37 1229.53 1299.53 1223.93L1076.66 1010.19C1072.71 1006.4 1067.53 1004.15 1062.05 1003.85L721.252 984.827C714.801 984.467 708.486 986.832 703.85 991.343L512.843 1177.22Z" stroke="url(#paint34_linear_82_10055)" stroke-width="4"/>
<path opacity="0.521739" d="M501.02 1154.29C494.289 1160.22 491.612 1169.51 494.159 1178.08L569.117 1430.51C570.957 1436.71 575.328 1441.84 581.157 1444.64L884.243 1590.4C889.21 1592.79 894.876 1593.31 900.207 1591.88L1195.7 1512.42C1203.5 1510.32 1209.64 1504.3 1211.88 1496.54L1279.36 1262.47C1281.6 1254.71 1279.6 1246.37 1274.1 1240.47L1065.84 1017.36C1062.08 1013.33 1057 1010.79 1051.51 1010.2L716.819 974.082C710.382 973.387 703.943 975.433 699.082 979.718L501.02 1154.29Z" stroke="url(#paint35_linear_82_10055)" stroke-width="4"/>
<path opacity="0.536232" d="M490.097 1132.22C483.122 1137.78 479.986 1146.86 482.048 1155.52L542.488 1409.47C543.988 1415.77 548.084 1421.15 553.768 1424.27L844.567 1583.93C849.425 1586.6 855.087 1587.43 860.511 1586.25L1155.84 1522.42C1163.71 1520.72 1170.13 1515.03 1172.76 1507.43L1251.72 1278.81C1254.35 1271.2 1252.81 1262.78 1247.65 1256.61L1054.35 1025.06C1050.8 1020.81 1045.83 1017.99 1040.35 1017.11L712.59 964.459C706.185 963.43 699.637 965.151 694.562 969.198L490.097 1132.22Z" stroke="url(#paint36_linear_82_10055)" stroke-width="4"/>
<path opacity="0.550725" d="M480.016 1111.06C472.817 1116.24 469.235 1125.09 470.81 1133.81L516.795 1388.45C517.949 1394.84 521.758 1400.44 527.278 1403.87L805.195 1576.57C809.929 1579.51 815.573 1580.63 821.076 1579.73L1115.43 1531.3C1123.36 1530 1130.03 1524.66 1133.04 1517.22L1223.1 1294.63C1226.11 1287.19 1225.02 1278.72 1220.23 1272.29L1042.17 1033.26C1038.84 1028.79 1034 1025.69 1028.55 1024.52L708.5 955.96C702.143 954.599 695.505 955.989 690.226 959.787L480.016 1111.06Z" stroke="url(#paint37_linear_82_10055)" stroke-width="4"/>
<path opacity="0.565217" d="M470.712 1090.84C463.309 1095.63 459.298 1104.24 460.386 1112.99L492.024 1367.49C492.828 1373.95 496.335 1379.77 501.675 1383.5L766.173 1568.32C770.768 1571.53 776.377 1572.95 781.946 1572.32L1074.55 1539.04C1082.5 1538.13 1089.42 1533.16 1092.8 1525.91L1193.53 1309.88C1196.92 1302.62 1196.28 1294.13 1191.87 1287.46L1029.28 1041.92C1026.18 1037.24 1021.49 1033.86 1016.08 1032.4L704.481 948.585C698.19 946.893 691.477 947.948 686.008 951.487L470.712 1090.84Z" stroke="url(#paint38_linear_82_10055)" stroke-width="4"/>
<path opacity="0.57971" d="M462.126 1071.6C454.54 1076 450.114 1084.33 450.717 1093.09L468.163 1346.65C468.611 1353.16 471.805 1359.18 476.948 1363.21L727.55 1559.22C731.991 1562.7 737.549 1564.42 743.172 1564.06L1033.27 1545.62C1041.23 1545.11 1048.36 1540.51 1052.1 1533.46L1163.07 1324.51C1166.82 1317.46 1166.64 1308.98 1162.61 1302.08L1015.66 1050.98C1012.81 1046.12 1008.28 1042.47 1002.92 1040.72L700.471 942.328C694.264 940.309 687.493 941.024 681.847 944.295L462.126 1071.6Z" stroke="url(#paint39_linear_82_10055)" stroke-width="4"/>
<path opacity="0.594203" d="M454.19 1053.37C446.441 1057.37 441.619 1065.41 441.739 1074.14L445.191 1325.97C445.281 1332.52 448.15 1338.72 453.08 1343.03L689.368 1549.3C693.639 1553.03 699.132 1555.05 704.794 1554.97L991.657 1551.02C999.607 1550.91 1006.93 1546.7 1011.02 1539.87L1131.76 1338.49C1135.85 1331.67 1136.13 1323.2 1132.49 1316.12L1001.3 1060.42C998.708 1055.37 994.351 1051.46 989.062 1049.43L696.403 937.179C690.297 934.837 683.486 935.21 677.676 938.204L454.19 1053.37Z" stroke="url(#paint40_linear_82_10055)" stroke-width="4"/>
<path opacity="0.608696" d="M446.839 1036.18C438.949 1039.77 433.749 1047.5 433.39 1056.18L423.09 1305.51C422.82 1312.07 425.353 1318.43 430.055 1323.01L651.669 1538.58C655.756 1542.56 661.168 1544.87 666.855 1545.08L949.783 1555.25C957.702 1555.54 965.203 1551.71 969.631 1545.13L1099.65 1351.77C1104.07 1345.19 1104.8 1336.78 1101.57 1329.52L986.183 1070.18L988.007 1069.37L986.183 1070.18C983.863 1064.97 979.697 1060.8 974.491 1058.49L692.217 933.127C686.228 930.467 679.394 930.495 673.433 933.204L446.839 1036.18Z" stroke="url(#paint41_linear_82_10055)" stroke-width="4"/>
<path opacity="0.623188" d="M440.005 1020.04C431.996 1023.21 426.436 1030.62 425.604 1039.23L401.836 1285.29C401.203 1291.85 403.393 1298.36 407.852 1303.19L614.493 1527.1C618.382 1531.32 623.697 1533.92 629.397 1534.41L907.718 1558.3C915.586 1558.98 923.244 1555.55 927.992 1549.22L1066.78 1364.32C1071.53 1357.99 1072.7 1349.66 1069.88 1342.25L970.302 1080.23C968.263 1074.86 964.302 1070.45 959.196 1067.86L687.849 930.154C681.994 927.182 675.155 926.865 669.057 929.281L440.005 1020.04Z" stroke="url(#paint42_linear_82_10055)" stroke-width="4"/>
<path opacity="0.637681" d="M433.624 1004.98C425.516 1007.73 419.615 1014.8 418.319 1023.3L381.405 1265.38C380.41 1271.9 382.246 1278.54 386.448 1283.62L577.879 1514.9C581.556 1519.34 586.759 1522.24 592.456 1523.01L865.534 1560.17C873.332 1561.23 881.125 1558.2 886.18 1552.15L1033.21 1376.1C1038.26 1370.04 1039.88 1361.81 1037.48 1354.28L953.65 1090.52C951.901 1085.02 948.16 1080.37 943.167 1077.5L683.24 928.241C677.535 924.965 670.707 924.301 664.487 926.418L433.624 1004.98Z" stroke="url(#paint43_linear_82_10055)" stroke-width="4"/>
<path opacity="0.652174" d="M427.626 990.997C419.441 993.34 413.22 1000.05 411.467 1008.42L361.77 1245.8C360.414 1252.28 361.89 1259.03 365.821 1264.33L541.862 1502.01C545.314 1506.67 550.389 1509.85 556.071 1510.91L823.301 1560.86C831.011 1562.3 838.916 1559.69 844.263 1553.92L998.991 1387.08C1004.34 1381.32 1006.38 1373.2 1004.42 1365.57L936.222 1101C934.772 1095.38 931.264 1090.51 926.398 1087.37L678.331 927.364C672.791 923.791 665.993 922.782 659.665 924.593L427.626 990.997Z" stroke="url(#paint44_linear_82_10055)" stroke-width="4"/>
<path opacity="0.666667" d="M421.943 978.115C413.702 980.04 407.183 986.375 404.983 994.595L342.901 1226.6C341.187 1233.01 342.295 1239.85 345.943 1245.37L506.474 1488.46C509.689 1493.33 514.622 1496.79 520.275 1498.14L781.087 1560.39C788.689 1562.21 796.687 1560 802.308 1554.54L964.178 1397.24C969.799 1391.78 972.269 1383.82 970.733 1376.11L918.013 1111.64C916.871 1105.91 913.608 1100.83 908.885 1097.43L673.064 927.498C667.705 923.637 660.954 922.283 654.532 923.783L421.943 978.115Z" stroke="url(#paint45_linear_82_10055)" stroke-width="4"/>
<path opacity="0.681159" d="M416.508 966.334C408.233 967.842 401.437 973.791 398.802 981.833L324.769 1207.82C322.699 1214.14 323.435 1221.04 326.788 1226.77L471.747 1474.31C474.713 1479.37 479.489 1483.1 485.098 1484.74L738.959 1558.77C746.436 1560.95 754.505 1559.16 760.384 1554.01L928.824 1406.56C934.703 1401.42 937.588 1393.62 936.485 1385.86L899.024 1122.39C898.197 1116.57 895.192 1111.29 890.625 1107.63L667.385 928.613C662.222 924.473 655.534 922.777 649.035 923.962L416.508 966.334Z" stroke="url(#paint46_linear_82_10055)" stroke-width="4"/>
<path opacity="0.695652" d="M411.255 955.655C402.966 956.747 395.916 962.298 392.859 970.139L307.34 1189.48C304.92 1195.69 305.28 1202.64 308.326 1208.55L437.711 1459.58C440.416 1464.83 445.02 1468.83 450.573 1470.75L696.985 1556.01C704.319 1558.55 712.437 1557.17 718.556 1552.36L892.986 1415.01C899.105 1410.2 902.393 1402.59 901.725 1394.8L879.257 1133.21C878.751 1127.32 876.016 1121.85 871.618 1117.93L661.242 930.676C656.289 926.266 649.681 924.233 643.119 925.097L411.255 955.655Z" stroke="url(#paint47_linear_82_10055)" stroke-width="4"/>
<path opacity="0.710145" d="M406.117 946.075C397.836 946.754 390.555 951.896 387.09 959.513L290.583 1171.62C287.818 1177.7 287.797 1184.68 290.527 1190.76L404.391 1444.33C406.824 1449.75 411.243 1454.01 416.725 1456.21L655.23 1552.14C662.405 1555.03 670.55 1554.07 676.89 1549.59L856.72 1422.59C863.06 1418.11 866.74 1410.72 866.506 1402.93L858.717 1144.06C858.538 1138.11 856.085 1132.46 851.869 1128.31L654.585 933.651C649.855 928.984 643.344 926.616 636.735 927.158L406.117 946.075Z" stroke="url(#paint48_linear_82_10055)" stroke-width="4"/>
<path opacity="0.724638" d="M401.027 937.587C392.774 937.857 385.287 942.58 381.429 949.95L274.461 1154.28C271.356 1160.21 270.954 1167.2 273.358 1173.43L371.809 1428.6C373.96 1434.18 378.18 1438.68 383.579 1441.17L613.755 1547.18C620.753 1550.41 628.905 1549.86 635.448 1545.73L820.08 1429.27C826.623 1425.14 830.681 1417.98 830.879 1410.22L837.409 1154.89C837.562 1148.9 835.4 1143.1 831.379 1138.7L647.364 937.502C642.87 932.588 636.473 929.89 629.832 930.107L401.027 937.587Z" stroke="url(#paint49_linear_82_10055)" stroke-width="4"/>
<path opacity="0.73913" d="M395.922 930.181C387.718 930.046 380.048 934.343 375.814 941.445L258.936 1137.47C255.5 1143.23 254.715 1150.21 256.786 1156.57L339.987 1412.43C341.846 1418.15 345.855 1422.9 351.156 1425.67L572.62 1541.16C579.428 1544.71 587.564 1544.58 594.289 1540.81L783.123 1435.04C789.849 1431.28 794.27 1424.37 794.899 1416.66L815.342 1165.66C815.831 1159.66 813.97 1153.7 810.157 1149.08L639.534 942.186C635.288 937.038 629.021 934.016 622.364 933.907L395.922 930.181Z" stroke="url(#paint50_linear_82_10055)" stroke-width="4"/>
<path opacity="0.753623" d="M390.739 923.842C382.604 923.308 374.776 927.17 370.183 933.984L243.974 1121.23C240.215 1126.8 239.048 1133.74 240.776 1140.22L308.943 1395.88C310.502 1401.72 314.286 1406.71 319.477 1409.74L531.887 1534.12C538.488 1537.98 546.587 1538.26 553.475 1534.86L745.907 1439.92C752.796 1436.52 757.565 1429.89 758.618 1422.25L792.526 1176.34C793.355 1170.33 791.805 1164.25 788.21 1159.41L631.053 947.662C627.068 942.292 620.947 938.953 614.289 938.516L390.739 923.842Z" stroke="url(#paint51_linear_82_10055)" stroke-width="4"/>
<path opacity="0.768116" d="M385.415 918.55C377.369 917.624 369.408 921.047 364.476 927.553L229.534 1105.57C225.462 1110.94 223.913 1117.82 225.294 1124.4L278.693 1378.97C279.943 1384.94 283.49 1390.14 288.559 1393.45L491.609 1526.07C497.989 1530.24 506.031 1530.93 513.061 1527.9L708.487 1443.88C715.517 1440.85 720.616 1434.52 722.09 1426.97L768.975 1186.89C770.146 1180.89 768.914 1174.69 765.55 1169.64L621.882 953.884C618.168 948.305 612.207 944.655 605.565 943.891L385.415 918.55Z" stroke="url(#paint52_linear_82_10055)" stroke-width="4"/>
<path opacity="0.782609" d="M379.892 914.285C371.954 912.974 363.885 915.954 358.634 922.134L215.577 1090.52C211.203 1095.67 209.276 1102.47 210.303 1109.13L249.249 1361.78C250.183 1367.84 253.481 1373.25 258.414 1376.83L451.842 1517.08C457.987 1521.53 465.95 1522.62 473.102 1519.98L670.917 1446.93C678.069 1444.29 683.48 1438.26 685.366 1430.84L744.704 1197.26C746.217 1191.3 745.312 1185 742.189 1179.75L611.983 960.804C608.55 955.031 602.766 951.078 596.154 949.987L379.892 914.285Z" stroke="url(#paint53_linear_82_10055)" stroke-width="4"/>
<path opacity="0.797101" d="M374.11 911.021C366.3 909.335 358.149 911.869 352.601 917.706L202.063 1076.1C197.399 1081.01 195.097 1087.71 195.766 1094.43L220.621 1344.33C221.231 1350.47 224.27 1356.09 229.055 1359.93L412.635 1507.17C418.533 1511.9 426.397 1513.38 433.648 1511.12L633.251 1449.08C640.503 1446.83 646.208 1441.13 648.497 1433.86L719.727 1207.42C721.584 1201.51 721.013 1195.13 718.142 1189.69L601.322 968.374C598.18 962.421 592.586 958.174 586.02 956.757L374.11 911.021Z" stroke="url(#paint54_linear_82_10055)" stroke-width="4"/>
<path opacity="0.811594" d="M368.015 908.729C360.35 906.678 352.143 908.764 346.319 914.244L188.952 1062.32C184.011 1066.97 181.338 1073.55 181.645 1080.31L192.816 1326.68C193.097 1332.89 195.865 1338.7 200.491 1342.8L374.035 1496.39C379.674 1501.38 387.419 1503.24 394.749 1501.38L595.545 1450.34C602.875 1448.48 608.853 1443.12 611.535 1436.01L694.065 1217.33C696.265 1211.5 696.034 1205.05 693.424 1199.43L589.869 976.543C587.026 970.424 581.637 965.892 575.133 964.152L368.015 908.729Z" stroke="url(#paint55_linear_82_10055)" stroke-width="4"/>
<path opacity="0.826087" d="M361.552 907.378C354.051 904.973 345.813 906.612 339.738 911.719L176.203 1049.19C170.998 1053.56 167.961 1060 167.903 1066.79L165.839 1308.88C165.785 1315.14 168.272 1321.13 172.726 1325.48L336.088 1484.78C341.458 1490.02 349.064 1492.26 356.45 1490.79L557.849 1450.71C565.235 1449.24 571.466 1444.24 574.529 1437.33L667.737 1226.97C670.278 1221.23 670.393 1214.72 668.055 1208.94L577.596 985.259C575.06 978.989 569.889 974.182 563.462 972.121L361.552 907.378Z" stroke="url(#paint56_linear_82_10055)" stroke-width="4"/>
<path opacity="0.84058" d="M354.671 906.932C347.351 904.185 339.108 905.379 332.805 910.101L163.775 1036.72C158.32 1040.81 154.926 1047.09 154.502 1053.88L139.691 1290.98C139.298 1297.27 141.493 1303.43 145.765 1308.02L298.836 1472.4C303.925 1477.86 311.373 1480.48 318.794 1479.4L520.214 1450.21C527.635 1449.14 534.096 1444.51 537.528 1437.81L640.764 1236.29C643.645 1230.66 644.111 1224.12 642.052 1218.18L564.478 994.468C562.257 988.062 557.317 982.991 550.982 980.614L354.671 906.932Z" stroke="url(#paint57_linear_82_10055)" stroke-width="4"/>
<path opacity="0.855072" d="M347.325 907.356C340.202 904.279 331.98 905.032 325.474 909.357L151.628 1024.93C145.94 1028.71 142.196 1034.81 141.405 1041.58L114.373 1273.02C113.636 1279.33 115.531 1285.64 119.609 1290.46L262.318 1459.29C267.117 1464.97 274.389 1467.94 281.822 1467.26L482.692 1448.86C490.125 1448.18 496.794 1443.94 500.581 1437.47L613.172 1245.26C616.389 1239.77 617.21 1233.21 615.439 1227.13L550.496 1004.12C548.596 997.591 543.9 992.266 537.672 989.576L347.325 907.356Z" stroke="url(#paint58_linear_82_10055)" stroke-width="4"/>
<path opacity="0.869565" d="M339.466 908.607C332.556 905.215 324.38 905.531 317.698 909.45L139.718 1013.81C133.813 1017.28 129.73 1023.17 128.572 1029.91L89.8798 1255.05C88.7957 1261.36 90.3804 1267.81 94.2541 1272.87L226.566 1445.51C231.068 1451.39 238.145 1454.7 245.568 1454.42L445.328 1446.68C452.751 1446.39 459.605 1442.54 463.731 1436.33L584.982 1253.87C588.532 1248.53 589.711 1241.96 588.237 1235.75L535.63 1014.15C534.056 1007.52 529.616 1001.95 523.51 998.955L339.466 908.607Z" stroke="url(#paint59_linear_82_10055)" stroke-width="4"/>
<path opacity="0.884058" d="M331.053 910.644C324.37 906.951 316.265 906.838 309.432 910.342L128.006 1003.38C121.901 1006.51 117.488 1012.18 115.966 1018.86L66.205 1237.12C64.7709 1243.41 66.0372 1249.99 69.6959 1255.27L191.612 1431.11C195.81 1437.17 202.676 1440.82 210.066 1440.92L408.17 1443.69C415.56 1443.79 422.574 1440.34 427.023 1434.4L556.222 1262.07C560.1 1256.89 561.641 1250.35 560.47 1244.02L519.867 1024.51C518.625 1017.79 514.452 1011.99 508.482 1008.69L331.053 910.644Z" stroke="url(#paint60_linear_82_10055)" stroke-width="4"/>
<path opacity="0.898551" d="M322.047 913.422C315.606 909.444 307.596 908.91 300.64 911.993L116.453 993.625C110.166 996.411 105.435 1001.85 103.55 1008.45L43.3417 1219.27C41.5555 1225.53 42.4953 1232.23 45.9289 1237.72L157.487 1416.16C161.373 1422.37 168.011 1426.34 175.348 1426.83L371.261 1439.91C378.597 1440.4 385.748 1437.35 390.5 1431.71L526.921 1269.84C531.12 1264.85 533.025 1258.34 532.166 1251.91L503.197 1035.14C502.29 1028.35 498.395 1022.33 492.575 1018.74L322.047 913.422Z" stroke="url(#paint61_linear_82_10055)" stroke-width="4"/>
<path opacity="0.913043" d="M312.411 916.895C306.225 912.648 298.334 911.701 291.281 914.359L105.016 984.551C98.5681 986.981 93.5311 992.158 91.2859 998.665L21.2773 1201.55C19.1375 1207.75 19.743 1214.56 22.9417 1220.26L124.212 1400.69C127.782 1407.05 134.176 1411.32 141.437 1412.19L334.643 1435.37C341.904 1436.24 349.165 1433.61 354.203 1428.29L497.105 1277.15C501.619 1272.38 503.89 1265.92 503.348 1259.4L485.612 1045.98C485.043 1039.13 481.437 1032.92 475.781 1029.04L312.411 916.895Z" stroke="url(#paint62_linear_82_10055)" stroke-width="4"/>
<path opacity="0.927536" d="M302.112 921.013C296.192 916.515 288.444 915.168 281.322 917.398L93.6587 976.151C87.0676 978.215 81.7381 983.117 79.1377 989.508L-0.00200018 1184.01C-2.49596 1190.14 -2.23218 1197.03 0.722027 1202.93L91.8079 1384.78C95.0571 1391.26 101.194 1395.82 108.358 1397.07L298.357 1430.11C305.52 1431.36 312.867 1429.14 318.169 1424.14L466.805 1283.99C471.626 1279.44 474.264 1273.05 474.045 1266.45L467.107 1056.98C466.879 1050.1 463.57 1043.69 458.092 1039.53L302.112 921.013Z" stroke="url(#paint63_linear_82_10055)" stroke-width="4"/>
<path opacity="0.942029" d="M291.122 925.728C285.479 920.996 277.896 919.261 270.732 921.062L82.3418 968.421C75.6285 970.109 70.021 974.719 67.0706 980.975L-20.511 1166.69C-23.3592 1172.73 -23.4441 1179.7 -20.7436 1185.78L60.2932 1368.48C63.2186 1375.07 69.084 1379.9 76.1299 1381.51L262.439 1424.15C269.485 1425.76 276.891 1423.97 282.437 1419.32L436.052 1290.33C441.172 1286.03 444.176 1279.73 444.287 1273.06L447.683 1068.08C447.798 1061.18 444.796 1054.6 439.508 1050.16L291.122 925.728Z" stroke="url(#paint64_linear_82_10055)" stroke-width="4"/>
<path opacity="0.956522" d="M279.413 930.988C274.057 926.04 266.66 923.931 259.482 925.304L71.0263 961.352C64.2119 962.655 58.3419 966.956 55.0479 973.057L-40.2701 1149.63C-43.472 1155.56 -43.9121 1162.59 -41.4743 1168.86L29.6787 1351.85C32.2782 1358.53 37.8595 1363.61 44.7671 1365.58L226.924 1417.53C233.831 1419.5 241.272 1418.13 247.038 1413.83L404.876 1296.15C410.284 1292.11 413.656 1285.92 414.101 1279.2L427.342 1079.23C427.799 1072.32 425.112 1065.58 420.028 1060.88L279.413 930.988Z" stroke="url(#paint65_linear_82_10055)" stroke-width="4"/>
<path opacity="0.971014" d="M266.962 936.74C261.902 931.595 254.712 929.127 247.547 930.075L59.6765 954.932C52.7828 955.844 46.6666 959.819 43.0365 965.747L-59.2992 1132.87C-62.8535 1138.67 -63.6551 1145.75 -61.4884 1152.19L-0.0253887 1334.95C2.2472 1341.7 7.53298 1347.02 14.2825 1349.34L191.844 1410.28C198.593 1412.6 206.042 1411.65 212.006 1407.72L373.311 1301.43C378.997 1297.68 382.734 1291.61 383.518 1284.86L406.089 1090.36C406.89 1083.46 404.525 1076.57 399.656 1071.63L266.962 936.74Z" stroke="url(#paint66_linear_82_10055)" stroke-width="4"/>
<path opacity="0.985507" d="M253.752 942.93C248.994 937.608 242.031 934.799 234.906 935.327L48.258 949.149C41.3071 949.664 34.9621 953.299 31.0042 959.035L-77.6205 1116.45C-81.5249 1122.11 -82.6937 1129.21 -80.8068 1135.82L-28.8126 1317.84C-26.867 1324.65 -21.887 1330.18 -15.3146 1332.83L157.23 1402.45C163.803 1405.1 171.233 1404.57 177.371 1401.02L341.388 1306.16C347.341 1302.71 351.443 1296.79 352.57 1290.01L383.936 1101.43C385.079 1094.56 383.043 1087.54 378.401 1082.35L253.752 942.93Z" stroke="url(#paint67_linear_82_10055)" stroke-width="4"/>
<path d="M239.766 949.506C235.316 944.026 228.597 940.893 221.539 941.007L36.7344 943.988C29.7491 944.101 23.1937 947.382 18.9175 952.907L-95.2607 1100.42C-99.5126 1105.91 -101.054 1113.03 -99.4549 1119.79L-56.6833 1300.58C-55.0633 1307.42 -50.3983 1313.15 -44.0214 1316.12L123.107 1394.06C129.484 1397.03 136.872 1396.92 143.158 1393.76L309.141 1310.32C315.348 1307.2 319.812 1301.44 321.287 1294.65L360.892 1112.37C362.376 1105.55 360.676 1098.41 356.272 1092.99L239.766 949.506Z" stroke="url(#paint68_linear_82_10055)" stroke-width="4"/>
<defs>
<linearGradient id="paint0_linear_82_10055" x1="1676.89" y1="2009.04" x2="1694.45" y2="751.696" gradientUnits="userSpaceOnUse">
<stop stop-color="#EA388E"/>
<stop offset="1" stop-color="#0328EE"/>
</linearGradient>
<linearGradient id="paint1_linear_82_10055" x1="1622.86" y1="1998.84" x2="1705.93" y2="754.806" gradientUnits="userSpaceOnUse">
<stop stop-color="#EA388E"/>
<stop offset="1" stop-color="#0328EE"/>
</linearGradient>
<linearGradient id="paint2_linear_82_10055" x1="1569.51" y1="1987.03" x2="1716.77" y2="759.752" gradientUnits="userSpaceOnUse">
<stop stop-color="#EA388E"/>
<stop offset="1" stop-color="#0328EE"/>
</linearGradient>
<linearGradient id="paint3_linear_82_10055" x1="1516.91" y1="1973.67" x2="1726.85" y2="766.484" gradientUnits="userSpaceOnUse">
<stop stop-color="#EA388E"/>
<stop offset="1" stop-color="#0328EE"/>
</linearGradient>
<linearGradient id="paint4_linear_82_10055" x1="1465.15" y1="1958.81" x2="1736.09" y2="774.951" gradientUnits="userSpaceOnUse">
<stop stop-color="#EA388E"/>
<stop offset="1" stop-color="#0328EE"/>
</linearGradient>
<linearGradient id="paint5_linear_82_10055" x1="1414.29" y1="1942.51" x2="1744.36" y2="785.089" gradientUnits="userSpaceOnUse">
<stop stop-color="#EA388E"/>
<stop offset="1" stop-color="#0328EE"/>
</linearGradient>
<linearGradient id="paint6_linear_82_10055" x1="1364.41" y1="1924.84" x2="1751.58" y2="796.83" gradientUnits="userSpaceOnUse">
<stop stop-color="#EA388E"/>
<stop offset="1" stop-color="#0328EE"/>
</linearGradient>
<linearGradient id="paint7_linear_82_10055" x1="1315.56" y1="1905.86" x2="1757.65" y2="810.097" gradientUnits="userSpaceOnUse">
<stop stop-color="#EA388E"/>
<stop offset="1" stop-color="#0328EE"/>
</linearGradient>
<linearGradient id="paint8_linear_82_10055" x1="1267.82" y1="1885.64" x2="1762.49" y2="824.808" gradientUnits="userSpaceOnUse">
<stop stop-color="#EA388E"/>
<stop offset="1" stop-color="#0328EE"/>
</linearGradient>
<linearGradient id="paint9_linear_82_10055" x1="1221.23" y1="1864.25" x2="1766.02" y2="840.873" gradientUnits="userSpaceOnUse">
<stop stop-color="#EA388E"/>
<stop offset="1" stop-color="#0328EE"/>
</linearGradient>
<linearGradient id="paint10_linear_82_10055" x1="1175.85" y1="1841.78" x2="1768.15" y2="858.198" gradientUnits="userSpaceOnUse">
<stop stop-color="#EA388E"/>
<stop offset="1" stop-color="#0328EE"/>
</linearGradient>
<linearGradient id="paint11_linear_82_10055" x1="1131.73" y1="1818.28" x2="1768.84" y2="876.683" gradientUnits="userSpaceOnUse">
<stop stop-color="#EA388E"/>
<stop offset="1" stop-color="#0328EE"/>
</linearGradient>
<linearGradient id="paint12_linear_82_10055" x1="1088.91" y1="1793.86" x2="1768.01" y2="896.225" gradientUnits="userSpaceOnUse">
<stop stop-color="#EA388E"/>
<stop offset="1" stop-color="#0328EE"/>
</linearGradient>
<linearGradient id="paint13_linear_82_10055" x1="1047.42" y1="1768.57" x2="1765.62" y2="916.719" gradientUnits="userSpaceOnUse">
<stop stop-color="#EA388E"/>
<stop offset="1" stop-color="#0328EE"/>
</linearGradient>
<linearGradient id="paint14_linear_82_10055" x1="1007.3" y1="1742.52" x2="1761.63" y2="938.055" gradientUnits="userSpaceOnUse">
<stop stop-color="#EA388E"/>
<stop offset="1" stop-color="#0328EE"/>
</linearGradient>
<linearGradient id="paint15_linear_82_10055" x1="968.574" y1="1715.78" x2="1756.01" y2="960.123" gradientUnits="userSpaceOnUse">
<stop stop-color="#EA388E"/>
<stop offset="1" stop-color="#0328EE"/>
</linearGradient>
<linearGradient id="paint16_linear_82_10055" x1="931.269" y1="1688.44" x2="1748.73" y2="982.813" gradientUnits="userSpaceOnUse">
<stop stop-color="#EA388E"/>
<stop offset="1" stop-color="#0328EE"/>
</linearGradient>
<linearGradient id="paint17_linear_82_10055" x1="895.402" y1="1660.58" x2="1739.78" y2="1006.01" gradientUnits="userSpaceOnUse">
<stop stop-color="#EA388E"/>
<stop offset="1" stop-color="#0328EE"/>
</linearGradient>
<linearGradient id="paint18_linear_82_10055" x1="860.983" y1="1632.28" x2="1729.16" y2="1029.62" gradientUnits="userSpaceOnUse">
<stop stop-color="#EA388E"/>
<stop offset="1" stop-color="#0328EE"/>
</linearGradient>
<linearGradient id="paint19_linear_82_10055" x1="828.023" y1="1603.64" x2="1716.85" y2="1053.51" gradientUnits="userSpaceOnUse">
<stop stop-color="#EA388E"/>
<stop offset="1" stop-color="#0328EE"/>
</linearGradient>
<linearGradient id="paint20_linear_82_10055" x1="796.524" y1="1574.73" x2="1702.88" y2="1077.59" gradientUnits="userSpaceOnUse">
<stop stop-color="#EA388E"/>
<stop offset="1" stop-color="#0328EE"/>
</linearGradient>
<linearGradient id="paint21_linear_82_10055" x1="766.485" y1="1545.65" x2="1687.25" y2="1101.76" gradientUnits="userSpaceOnUse">
<stop stop-color="#EA388E"/>
<stop offset="1" stop-color="#0328EE"/>
</linearGradient>
<linearGradient id="paint22_linear_82_10055" x1="737.897" y1="1516.47" x2="1670" y2="1125.92" gradientUnits="userSpaceOnUse">
<stop stop-color="#EA388E"/>
<stop offset="1" stop-color="#0328EE"/>
</linearGradient>
<linearGradient id="paint23_linear_82_10055" x1="710.753" y1="1487.28" x2="1651.15" y2="1149.97" gradientUnits="userSpaceOnUse">
<stop stop-color="#EA388E"/>
<stop offset="1" stop-color="#0328EE"/>
</linearGradient>
<linearGradient id="paint24_linear_82_10055" x1="685.035" y1="1458.15" x2="1630.73" y2="1173.82" gradientUnits="userSpaceOnUse">
<stop stop-color="#EA388E"/>
<stop offset="1" stop-color="#0328EE"/>
</linearGradient>
<linearGradient id="paint25_linear_82_10055" x1="660.723" y1="1429.18" x2="1608.78" y2="1197.39" gradientUnits="userSpaceOnUse">
<stop stop-color="#EA388E"/>
<stop offset="1" stop-color="#0328EE"/>
</linearGradient>
<linearGradient id="paint26_linear_82_10055" x1="637.794" y1="1400.42" x2="1585.36" y2="1220.6" gradientUnits="userSpaceOnUse">
<stop stop-color="#EA388E"/>
<stop offset="1" stop-color="#0328EE"/>
</linearGradient>
<linearGradient id="paint27_linear_82_10055" x1="616.218" y1="1371.97" x2="1560.49" y2="1243.36" gradientUnits="userSpaceOnUse">
<stop stop-color="#EA388E"/>
<stop offset="1" stop-color="#0328EE"/>
</linearGradient>
<linearGradient id="paint28_linear_82_10055" x1="595.964" y1="1343.89" x2="1534.25" y2="1265.62" gradientUnits="userSpaceOnUse">
<stop stop-color="#EA388E"/>
<stop offset="1" stop-color="#0328EE"/>
</linearGradient>
<linearGradient id="paint29_linear_82_10055" x1="576.994" y1="1316.26" x2="1506.67" y2="1287.3" gradientUnits="userSpaceOnUse">
<stop stop-color="#EA388E"/>
<stop offset="1" stop-color="#0328EE"/>
</linearGradient>
<linearGradient id="paint30_linear_82_10055" x1="559.27" y1="1289.14" x2="1477.81" y2="1308.35" gradientUnits="userSpaceOnUse">
<stop stop-color="#EA388E"/>
<stop offset="1" stop-color="#0328EE"/>
</linearGradient>
<linearGradient id="paint31_linear_82_10055" x1="542.747" y1="1262.59" x2="1447.74" y2="1328.71" gradientUnits="userSpaceOnUse">
<stop stop-color="#EA388E"/>
<stop offset="1" stop-color="#0328EE"/>
</linearGradient>
<linearGradient id="paint32_linear_82_10055" x1="527.381" y1="1236.69" x2="1416.5" y2="1348.33" gradientUnits="userSpaceOnUse">
<stop stop-color="#EA388E"/>
<stop offset="1" stop-color="#0328EE"/>
</linearGradient>
<linearGradient id="paint33_linear_82_10055" x1="513.119" y1="1211.48" x2="1384.16" y2="1367.16" gradientUnits="userSpaceOnUse">
<stop stop-color="#EA388E"/>
<stop offset="1" stop-color="#0328EE"/>
</linearGradient>
<linearGradient id="paint34_linear_82_10055" x1="499.911" y1="1187.02" x2="1350.78" y2="1385.16" gradientUnits="userSpaceOnUse">
<stop stop-color="#EA388E"/>
<stop offset="1" stop-color="#0328EE"/>
</linearGradient>
<linearGradient id="paint35_linear_82_10055" x1="487.7" y1="1163.36" x2="1316.42" y2="1402.29" gradientUnits="userSpaceOnUse">
<stop stop-color="#EA388E"/>
<stop offset="1" stop-color="#0328EE"/>
</linearGradient>
<linearGradient id="paint36_linear_82_10055" x1="476.429" y1="1140.56" x2="1281.13" y2="1418.51" gradientUnits="userSpaceOnUse">
<stop stop-color="#EA388E"/>
<stop offset="1" stop-color="#0328EE"/>
</linearGradient>
<linearGradient id="paint37_linear_82_10055" x1="466.039" y1="1118.65" x2="1244.97" y2="1433.8" gradientUnits="userSpaceOnUse">
<stop stop-color="#EA388E"/>
<stop offset="1" stop-color="#0328EE"/>
</linearGradient>
<linearGradient id="paint38_linear_82_10055" x1="456.467" y1="1097.68" x2="1208.01" y2="1448.13" gradientUnits="userSpaceOnUse">
<stop stop-color="#EA388E"/>
<stop offset="1" stop-color="#0328EE"/>
</linearGradient>
<linearGradient id="paint39_linear_82_10055" x1="447.653" y1="1077.68" x2="1170.31" y2="1461.47" gradientUnits="userSpaceOnUse">
<stop stop-color="#EA388E"/>
<stop offset="1" stop-color="#0328EE"/>
</linearGradient>
<linearGradient id="paint40_linear_82_10055" x1="439.528" y1="1058.68" x2="1131.92" y2="1473.8" gradientUnits="userSpaceOnUse">
<stop stop-color="#EA388E"/>
<stop offset="1" stop-color="#0328EE"/>
</linearGradient>
<linearGradient id="paint41_linear_82_10055" x1="432.03" y1="1040.71" x2="1092.9" y2="1485.09" gradientUnits="userSpaceOnUse">
<stop stop-color="#EA388E"/>
<stop offset="1" stop-color="#0328EE"/>
</linearGradient>
<linearGradient id="paint42_linear_82_10055" x1="425.089" y1="1023.8" x2="1053.31" y2="1495.33" gradientUnits="userSpaceOnUse">
<stop stop-color="#EA388E"/>
<stop offset="1" stop-color="#0328EE"/>
</linearGradient>
<linearGradient id="paint43_linear_82_10055" x1="418.64" y1="1007.96" x2="1013.22" y2="1504.51" gradientUnits="userSpaceOnUse">
<stop stop-color="#EA388E"/>
<stop offset="1" stop-color="#0328EE"/>
</linearGradient>
<linearGradient id="paint44_linear_82_10055" x1="412.614" y1="993.208" x2="972.672" y2="1512.61" gradientUnits="userSpaceOnUse">
<stop stop-color="#EA388E"/>
<stop offset="1" stop-color="#0328EE"/>
</linearGradient>
<linearGradient id="paint45_linear_82_10055" x1="406.942" y1="979.56" x2="931.737" y2="1519.62" gradientUnits="userSpaceOnUse">
<stop stop-color="#EA388E"/>
<stop offset="1" stop-color="#0328EE"/>
</linearGradient>
<linearGradient id="paint46_linear_82_10055" x1="401.557" y1="967.019" x2="890.47" y2="1525.53" gradientUnits="userSpaceOnUse">
<stop stop-color="#EA388E"/>
<stop offset="1" stop-color="#0328EE"/>
</linearGradient>
<linearGradient id="paint47_linear_82_10055" x1="396.392" y1="955.59" x2="848.932" y2="1530.33" gradientUnits="userSpaceOnUse">
<stop stop-color="#EA388E"/>
<stop offset="1" stop-color="#0328EE"/>
</linearGradient>
<linearGradient id="paint48_linear_82_10055" x1="391.381" y1="945.27" x2="807.185" y2="1534.03" gradientUnits="userSpaceOnUse">
<stop stop-color="#EA388E"/>
<stop offset="1" stop-color="#0328EE"/>
</linearGradient>
<linearGradient id="paint49_linear_82_10055" x1="386.454" y1="936.055" x2="765.287" y2="1536.61" gradientUnits="userSpaceOnUse">
<stop stop-color="#EA388E"/>
<stop offset="1" stop-color="#0328EE"/>
</linearGradient>
<linearGradient id="paint50_linear_82_10055" x1="381.548" y1="927.937" x2="723.3" y2="1538.07" gradientUnits="userSpaceOnUse">
<stop stop-color="#EA388E"/>
<stop offset="1" stop-color="#0328EE"/>
</linearGradient>
<linearGradient id="paint51_linear_82_10055" x1="376.599" y1="920.901" x2="681.286" y2="1538.43" gradientUnits="userSpaceOnUse">
<stop stop-color="#EA388E"/>
<stop offset="1" stop-color="#0328EE"/>
</linearGradient>
<linearGradient id="paint52_linear_82_10055" x1="371.544" y1="914.932" x2="639.307" y2="1537.69" gradientUnits="userSpaceOnUse">
<stop stop-color="#EA388E"/>
<stop offset="1" stop-color="#0328EE"/>
</linearGradient>
<linearGradient id="paint53_linear_82_10055" x1="366.322" y1="910.009" x2="597.426" y2="1535.85" gradientUnits="userSpaceOnUse">
<stop stop-color="#EA388E"/>
<stop offset="1" stop-color="#0328EE"/>
</linearGradient>
<linearGradient id="paint54_linear_82_10055" x1="360.874" y1="906.11" x2="555.704" y2="1532.93" gradientUnits="userSpaceOnUse">
<stop stop-color="#EA388E"/>
<stop offset="1" stop-color="#0328EE"/>
</linearGradient>
<linearGradient id="paint55_linear_82_10055" x1="355.143" y1="903.206" x2="514.203" y2="1528.95" gradientUnits="userSpaceOnUse">
<stop stop-color="#EA388E"/>
<stop offset="1" stop-color="#0328EE"/>
</linearGradient>
<linearGradient id="paint56_linear_82_10055" x1="349.074" y1="901.268" x2="472.985" y2="1523.93" gradientUnits="userSpaceOnUse">
<stop stop-color="#EA388E"/>
<stop offset="1" stop-color="#0328EE"/>
</linearGradient>
<linearGradient id="paint57_linear_82_10055" x1="342.614" y1="900.263" x2="432.111" y2="1517.89" gradientUnits="userSpaceOnUse">
<stop stop-color="#EA388E"/>
<stop offset="1" stop-color="#0328EE"/>
</linearGradient>
<linearGradient id="paint58_linear_82_10055" x1="335.715" y1="900.155" x2="391.642" y2="1510.86" gradientUnits="userSpaceOnUse">
<stop stop-color="#EA388E"/>
<stop offset="1" stop-color="#0328EE"/>
</linearGradient>
<linearGradient id="paint59_linear_82_10055" x1="328.329" y1="900.905" x2="351.635" y2="1502.87" gradientUnits="userSpaceOnUse">
<stop stop-color="#EA388E"/>
<stop offset="1" stop-color="#0328EE"/>
</linearGradient>
<linearGradient id="paint60_linear_82_10055" x1="320.41" y1="902.471" x2="312.147" y2="1493.97" gradientUnits="userSpaceOnUse">
<stop stop-color="#EA388E"/>
<stop offset="1" stop-color="#0328EE"/>
</linearGradient>
<linearGradient id="paint61_linear_82_10055" x1="311.92" y1="904.811" x2="273.233" y2="1484.18" gradientUnits="userSpaceOnUse">
<stop stop-color="#EA388E"/>
<stop offset="1" stop-color="#0328EE"/>
</linearGradient>
<linearGradient id="paint62_linear_82_10055" x1="302.819" y1="907.879" x2="234.945" y2="1473.55" gradientUnits="userSpaceOnUse">
<stop stop-color="#EA388E"/>
<stop offset="1" stop-color="#0328EE"/>
</linearGradient>
<linearGradient id="paint63_linear_82_10055" x1="293.071" y1="911.627" x2="197.332" y2="1462.14" gradientUnits="userSpaceOnUse">
<stop stop-color="#EA388E"/>
<stop offset="1" stop-color="#0328EE"/>
</linearGradient>
<linearGradient id="paint64_linear_82_10055" x1="282.647" y1="916.007" x2="160.441" y2="1449.99" gradientUnits="userSpaceOnUse">
<stop stop-color="#EA388E"/>
<stop offset="1" stop-color="#0328EE"/>
</linearGradient>
<linearGradient id="paint65_linear_82_10055" x1="271.517" y1="920.968" x2="124.311" y2="1437.16" gradientUnits="userSpaceOnUse">
<stop stop-color="#EA388E"/>
<stop offset="1" stop-color="#0328EE"/>
</linearGradient>
<linearGradient id="paint66_linear_82_10055" x1="259.655" y1="926.458" x2="88.981" y2="1423.71" gradientUnits="userSpaceOnUse">
<stop stop-color="#EA388E"/>
<stop offset="1" stop-color="#0328EE"/>
</linearGradient>
<linearGradient id="paint67_linear_82_10055" x1="247.042" y1="932.423" x2="54.485" y2="1409.69" gradientUnits="userSpaceOnUse">
<stop stop-color="#EA388E"/>
<stop offset="1" stop-color="#0328EE"/>
</linearGradient>
<linearGradient id="paint68_linear_82_10055" x1="233.658" y1="938.811" x2="20.8494" y2="1395.18" gradientUnits="userSpaceOnUse">
<stop stop-color="#EA388E"/>
<stop offset="1" stop-color="#0328EE"/>
</linearGradient>
</defs>
</svg>
