<svg width="36" height="36" viewBox="0 0 36 36" fill="none" xmlns="http://www.w3.org/2000/svg">
<g clip-path="url(#clip0_82_10026)">
<path d="M36 18C36 8.05896 27.941 0 18 0C8.05896 0 0 8.05896 0 18C0 26.4413 5.81184 33.5246 13.6519 35.4701V23.5008H9.94032V18H13.6519V15.6298C13.6519 9.50328 16.4246 6.6636 22.4395 6.6636C23.58 6.6636 25.5478 6.88752 26.3527 7.11072V12.0967C25.9279 12.0521 25.1899 12.0298 24.2734 12.0298C21.3221 12.0298 20.1816 13.1479 20.1816 16.0546V18H26.0611L25.051 23.5008H20.1816V35.8682C29.0945 34.7918 36.0007 27.203 36.0007 18H36Z" fill="#0866FF"/>
<path d="M25.0501 23.5008L26.0603 18H20.1807V16.0545C20.1807 13.1479 21.3212 12.0297 24.2725 12.0297C25.1891 12.0297 25.9271 12.0521 26.3519 12.0967V7.11069C25.5469 6.88677 23.5791 6.66357 22.4387 6.66357C16.4238 6.66357 13.6511 9.50325 13.6511 15.6297V18H9.93945V23.5008H13.6511V35.4701C15.0435 35.8157 16.5001 36 17.9991 36C18.7371 36 19.4651 35.9546 20.18 35.8682V23.5008H25.0494H25.0501Z" fill="white"/>
</g>
<defs>
<clipPath id="clip0_82_10026">
<rect width="36" height="36" fill="white"/>
</clipPath>
</defs>
</svg>
