<?xml version="1.0" standalone="no"?>
<!DOCTYPE svg PUBLIC "-//W3C//DTD SVG 20010904//EN"
 "http://www.w3.org/TR/2001/REC-SVG-20010904/DTD/svg10.dtd">
<svg version="1.0" xmlns="http://www.w3.org/2000/svg"
 width="1920.000000pt" height="233.000000pt" viewBox="0 0 1920.000000 233.000000"
 preserveAspectRatio="xMidYMid meet">

<g transform="translate(0.000000,233.000000) scale(0.100000,-0.100000)"
fill="#000000" stroke="none">
<path d="M3215 1164 c-92 -15 -219 -48 -493 -128 -369 -106 -697 -168 -1102
-207 -63 -6 -383 -16 -710 -23 -568 -11 -597 -13 -641 -33 -53 -24 -75 -46
-188 -192 -59 -76 -81 -112 -81 -134 0 -25 13 -12 107 109 60 75 125 151 146
168 37 30 40 30 195 38 235 13 328 6 138 -9 -157 -13 -209 -29 -258 -77 -12
-13 -92 -123 -176 -245 -121 -175 -153 -227 -150 -249 3 -23 27 8 166 210 90
130 175 248 188 262 45 45 95 54 388 76 153 12 280 20 282 18 2 -2 -105 -18
-237 -36 -260 -35 -296 -46 -346 -106 -24 -29 -362 -572 -371 -597 -2 -5 5 -9
16 -9 14 0 60 68 188 277 93 152 180 290 193 305 47 57 76 64 478 117 209 28
386 51 394 50 8 0 -130 -29 -306 -64 -176 -34 -340 -68 -364 -74 -77 -22 -122
-80 -266 -351 -72 -134 -132 -247 -133 -252 -2 -4 5 -8 15 -8 15 0 50 56 152
248 135 252 185 321 243 335 66 16 972 187 975 184 2 -2 -195 -54 -438 -115
-474 -119 -497 -127 -543 -201 -21 -32 -157 -315 -202 -419 -13 -30 -13 -32 4
-32 15 0 42 50 122 219 102 217 125 254 185 284 35 17 1113 289 1127 285 6 -2
-216 -75 -493 -161 -308 -96 -521 -168 -549 -185 -59 -36 -77 -66 -143 -229
-31 -76 -63 -155 -71 -175 -15 -36 -15 -38 2 -38 15 0 33 34 86 163 80 194 94
219 143 251 44 28 1155 379 1187 374 12 -2 -211 -90 -494 -197 -283 -106 -536
-204 -561 -217 -71 -35 -101 -78 -147 -208 -57 -159 -59 -169 -37 -164 13 2
28 33 55 114 21 60 43 121 50 135 17 33 60 78 90 94 61 32 1174 445 1198 445
l27 -1 -26 -14 c-15 -8 -262 -118 -550 -245 -288 -127 -541 -242 -561 -256
-50 -32 -84 -86 -107 -166 -11 -36 -22 -75 -26 -87 -5 -16 -2 -21 12 -21 15 0
23 18 41 84 27 97 62 146 131 180 26 14 292 133 591 266 432 192 548 240 564
232 26 -11 34 -6 -584 -321 -261 -134 -491 -255 -510 -270 -36 -28 -90 -120
-90 -153 0 -34 27 -18 39 22 26 87 55 105 640 405 425 218 547 276 560 268 9
-6 16 -14 16 -19 0 -5 -231 -144 -512 -309 -455 -266 -583 -349 -583 -377 0
-18 33 -6 64 25 18 17 98 70 177 116 79 46 310 180 512 299 l368 215 22 -22
c15 -14 18 -24 11 -29 -6 -4 -214 -142 -463 -307 -355 -235 -447 -301 -428
-303 19 -2 136 71 472 295 l447 298 19 -24 c10 -13 19 -27 19 -31 0 -4 -158
-126 -352 -271 -260 -195 -346 -265 -331 -267 15 -2 124 73 363 253 l342 257
24 -23 c13 -12 24 -28 24 -34 0 -7 -117 -110 -260 -230 -143 -120 -260 -220
-260 -222 0 -2 9 -3 19 -3 11 0 132 94 270 210 138 116 254 210 258 209 4 0
19 -14 32 -31 l24 -30 -84 -82 c-46 -45 -131 -125 -188 -179 -81 -76 -99 -97
-82 -97 15 0 79 54 198 167 l175 167 29 -34 c16 -19 27 -43 25 -52 -2 -9 1
-19 8 -22 6 -2 4 -5 -4 -5 -9 -1 -65 -50 -125 -111 -80 -81 -104 -110 -90
-110 13 0 61 43 130 116 l109 117 33 -39 c18 -22 33 -42 33 -46 0 -4 20 -29
45 -54 25 -26 47 -56 51 -66 5 -18 50 -36 61 -25 3 3 -3 17 -13 30 -52 66
-109 137 -145 177 -22 24 -37 50 -35 57 3 7 -1 13 -9 13 -7 0 -27 17 -44 37
l-31 37 47 48 47 48 28 -27 c15 -15 28 -30 28 -35 0 -4 21 -30 48 -56 26 -26
67 -71 92 -98 189 -209 214 -234 237 -234 23 0 23 1 -10 37 -19 21 -80 90
-136 153 -56 63 -118 131 -137 150 -19 19 -34 39 -34 44 0 5 -18 24 -40 43
-22 19 -40 39 -40 44 0 11 72 78 84 79 9 0 136 -121 136 -131 0 -3 93 -99 206
-212 160 -161 212 -207 232 -207 28 0 39 -12 -286 319 -85 86 -178 181 -208
212 l-54 55 33 32 c41 40 56 40 93 0 17 -18 72 -71 124 -118 51 -47 105 -96
119 -110 14 -14 76 -70 136 -124 61 -55 128 -117 151 -140 101 -102 131 -126
160 -126 l29 1 -45 41 c-25 23 -101 94 -170 158 -69 64 -152 141 -185 170 -56
50 -151 139 -250 235 -22 22 -52 48 -66 57 l-24 16 36 37 37 38 33 -31 c88
-81 113 -102 118 -102 3 0 26 -18 51 -40 25 -22 59 -50 75 -64 28 -23 75 -63
176 -148 38 -33 133 -111 208 -173 22 -19 95 -81 151 -129 56 -48 88 -68 109
-64 17 2 3 19 -80 88 -56 47 -141 119 -190 160 -48 41 -132 111 -185 155 -54
44 -109 92 -123 108 -14 15 -29 27 -34 27 -7 0 -125 98 -202 170 -16 15 -40
32 -52 39 -13 6 -23 18 -23 25 0 13 41 56 54 56 8 0 53 -34 108 -82 17 -16 35
-28 39 -28 5 0 21 -11 36 -25 24 -21 133 -104 223 -170 15 -11 53 -40 85 -65
32 -25 70 -54 85 -65 15 -11 53 -40 85 -65 71 -55 120 -92 161 -122 18 -13 87
-65 154 -116 94 -70 131 -92 154 -92 l31 0 -27 18 c-14 9 -70 51 -124 92 -53
41 -109 84 -124 95 -15 11 -53 40 -85 65 -32 25 -67 52 -79 60 -11 8 -36 26
-53 40 -70 55 -183 141 -243 185 -23 17 -58 45 -79 63 -21 17 -42 32 -46 32
-4 0 -25 15 -46 33 -21 17 -56 46 -79 62 -23 17 -55 42 -72 57 -17 15 -39 30
-50 34 -13 4 -18 12 -15 25 4 15 0 19 -23 19 -44 0 -55 22 -25 50 l25 23 25
-23 c13 -12 22 -26 20 -31 -3 -4 3 -5 14 -2 10 3 27 -3 37 -14 11 -10 30 -24
44 -31 14 -7 45 -28 70 -47 25 -19 61 -44 80 -55 19 -11 55 -36 80 -55 25 -19
61 -44 80 -55 31 -19 64 -41 125 -86 11 -8 32 -22 47 -32 31 -20 165 -112 258
-176 36 -25 101 -70 145 -100 44 -30 118 -81 164 -113 174 -120 196 -133 226
-133 33 0 39 -5 -150 124 -76 52 -154 106 -309 213 -39 26 -80 55 -92 63 -12
8 -55 38 -95 65 -39 28 -82 57 -95 65 -12 8 -48 33 -79 55 -31 22 -65 45 -75
50 -9 6 -30 21 -46 33 -28 22 -77 55 -117 79 -11 6 -31 21 -46 32 -39 32 -93
69 -116 80 -11 5 -29 18 -39 30 -11 11 -24 21 -31 21 -7 0 -20 9 -30 20 -10
11 -24 20 -30 20 -7 0 -18 6 -24 13 -8 11 -6 18 8 31 20 18 46 13 55 -10 3 -8
14 -14 24 -14 10 0 27 -9 37 -20 10 -11 24 -20 31 -20 7 0 25 -10 41 -23 15
-12 39 -28 53 -35 40 -20 91 -52 107 -67 8 -8 19 -15 25 -15 6 0 26 -11 44
-25 18 -14 36 -25 40 -25 4 0 22 -11 40 -25 18 -14 37 -25 42 -25 5 0 22 -10
37 -22 16 -12 41 -29 57 -38 63 -35 143 -83 148 -90 3 -4 16 -13 30 -20 22
-11 129 -77 277 -169 23 -14 78 -48 123 -76 44 -27 113 -70 153 -95 68 -43
110 -70 236 -147 30 -18 65 -33 78 -33 42 0 -11 39 -240 176 -29 17 -80 48
-113 70 -75 48 -142 89 -210 129 -28 17 -72 44 -98 60 -26 17 -81 51 -122 78
-41 26 -77 47 -81 47 -3 0 -28 16 -54 35 -27 19 -53 35 -58 35 -4 0 -27 14
-49 30 -23 17 -45 30 -48 30 -4 0 -22 11 -40 25 -18 14 -36 25 -40 25 -4 0
-22 11 -40 25 -18 14 -36 25 -40 25 -4 0 -21 11 -38 24 -17 13 -41 26 -52 30
-12 3 -29 15 -39 26 -10 11 -23 20 -30 20 -7 0 -22 9 -35 20 -13 11 -29 20
-35 20 -7 0 -18 7 -25 16 -8 8 -28 21 -47 29 -18 8 -33 18 -33 24 0 5 -14 14
-31 20 -27 9 -30 13 -19 26 16 19 25 19 44 0 8 -8 25 -19 38 -25 13 -5 30 -14
38 -19 8 -5 26 -14 40 -20 14 -6 43 -22 65 -35 22 -13 69 -39 105 -58 61 -33
94 -52 208 -114 26 -15 70 -39 97 -54 28 -15 93 -51 145 -80 52 -29 124 -68
160 -87 36 -20 76 -42 90 -51 14 -9 52 -31 85 -48 33 -17 98 -53 145 -79 47
-26 123 -68 170 -93 47 -25 96 -53 109 -63 13 -11 28 -19 33 -19 16 0 172 -92
200 -118 14 -13 32 -37 38 -53 8 -17 20 -29 31 -29 24 0 24 5 -5 54 -31 52
-56 74 -142 121 -38 21 -106 59 -152 84 -46 25 -105 58 -130 72 -26 14 -94 52
-152 84 -152 85 -263 146 -328 181 -31 17 -100 54 -152 84 -52 29 -117 65
-145 80 -27 15 -75 41 -105 59 -30 17 -73 40 -95 51 -22 11 -58 31 -80 45 -22
13 -57 32 -77 41 -21 10 -38 21 -38 25 0 4 -16 13 -35 19 -19 6 -35 16 -35 21
0 5 -8 9 -18 9 -11 0 -27 9 -37 20 -10 11 -26 20 -36 20 -25 0 -34 19 -13 27
10 4 22 0 29 -10 7 -10 21 -17 32 -17 11 0 26 -7 33 -15 7 -8 20 -15 30 -15 9
0 27 -9 40 -20 13 -11 29 -20 36 -20 8 0 66 -27 130 -59 63 -33 131 -65 150
-71 19 -6 34 -15 34 -20 0 -4 15 -13 33 -20 30 -11 124 -57 727 -352 129 -64
310 -152 402 -197 186 -91 223 -122 246 -207 8 -27 15 -55 18 -61 4 -14 34
-18 34 -5 -1 24 -31 117 -48 144 -42 68 0 44 -627 353 -220 108 -521 257 -670
330 -148 73 -280 136 -292 140 -11 3 -27 12 -33 20 -7 8 -20 15 -30 15 -9 0
-27 9 -40 20 -13 11 -31 20 -40 20 -10 0 -23 7 -30 15 -11 13 -10 15 6 9 10
-3 34 -12 52 -20 17 -8 47 -20 65 -27 17 -8 57 -26 88 -40 31 -15 62 -27 69
-27 7 0 32 -11 54 -24 23 -13 59 -29 81 -36 22 -7 65 -26 96 -42 31 -15 62
-28 68 -28 6 0 43 -16 81 -35 38 -19 74 -35 81 -35 6 0 42 -16 80 -35 39 -19
75 -35 82 -35 7 0 38 -13 69 -29 32 -16 74 -35 95 -41 21 -7 52 -20 68 -28 30
-16 112 -51 260 -112 44 -18 85 -36 90 -40 6 -4 42 -20 80 -35 39 -15 75 -31
80 -35 6 -5 41 -20 79 -34 67 -26 128 -63 153 -96 13 -16 56 -142 68 -198 7
-32 29 -52 42 -38 7 7 -29 135 -56 201 -34 83 -90 125 -256 190 -38 15 -74 31
-80 35 -5 5 -41 20 -78 34 -37 14 -78 32 -90 41 -12 8 -28 15 -35 15 -8 0 -42
13 -76 29 -33 16 -86 39 -116 51 -30 12 -64 27 -75 34 -11 7 -38 19 -60 26
-22 7 -65 26 -96 42 -31 15 -62 28 -68 28 -6 0 -42 16 -80 35 -37 19 -73 35
-80 35 -6 0 -46 16 -88 36 -168 79 -202 94 -209 94 -4 0 -40 16 -80 35 -40 19
-79 35 -86 35 -8 0 -23 7 -34 15 -17 13 -15 13 21 4 22 -6 45 -15 50 -19 10
-8 107 -44 260 -96 39 -13 81 -30 95 -38 14 -7 52 -21 84 -30 32 -10 68 -23
80 -31 12 -7 48 -21 81 -30 33 -9 69 -22 80 -29 11 -7 47 -21 80 -31 33 -9 69
-22 80 -28 11 -7 54 -23 95 -38 41 -14 112 -40 158 -57 45 -17 118 -45 162
-61 44 -17 117 -44 163 -61 45 -18 105 -40 133 -50 28 -10 65 -25 81 -34 39
-20 91 -79 99 -114 4 -15 10 -31 14 -37 4 -5 13 -28 19 -50 38 -124 64 -185
81 -185 15 0 11 19 -30 137 -70 206 -83 228 -156 269 -34 19 -93 45 -130 59
-106 37 -206 74 -239 89 -16 8 -48 19 -70 26 -22 7 -53 18 -70 26 -16 7 -61
25 -100 39 -38 15 -106 40 -150 56 -44 17 -105 39 -135 50 -30 11 -70 26 -88
35 -18 8 -56 22 -85 31 -29 8 -57 19 -63 24 -6 5 -44 20 -85 35 -173 60 -198
70 -204 76 -14 13 177 -43 275 -82 25 -10 69 -23 99 -29 30 -6 60 -16 66 -21
6 -5 46 -18 89 -30 44 -11 87 -25 96 -30 10 -5 39 -14 66 -20 26 -6 62 -17 79
-25 16 -8 58 -21 91 -29 34 -9 74 -23 90 -31 16 -8 37 -15 46 -15 9 0 47 -11
85 -24 37 -13 156 -52 263 -86 232 -75 245 -84 305 -233 21 -51 45 -110 55
-132 10 -22 21 -51 25 -65 15 -49 46 -100 60 -100 19 0 20 -4 -15 81 -17 41
-47 114 -66 164 -64 160 -84 193 -144 236 -30 21 -62 39 -70 39 -9 0 -54 13
-100 30 -47 16 -92 30 -100 30 -8 0 -33 9 -55 20 -22 11 -47 19 -55 20 -9 0
-54 13 -100 30 -47 16 -91 30 -98 30 -8 0 -28 7 -45 15 -18 8 -62 24 -99 35
-38 11 -98 29 -135 40 -38 11 -81 26 -98 34 -16 8 -46 17 -65 21 -19 4 -63 18
-97 31 -34 13 -71 24 -82 24 -11 0 -22 4 -25 9 -9 14 69 -5 409 -99 44 -13
100 -27 125 -31 25 -5 57 -14 71 -20 15 -6 53 -16 85 -24 33 -7 102 -25 154
-39 52 -14 115 -31 140 -37 25 -6 72 -19 105 -29 33 -10 76 -21 95 -24 19 -4
65 -18 101 -31 53 -21 71 -34 97 -70 18 -25 32 -48 32 -52 0 -3 18 -42 39 -87
22 -44 67 -139 99 -211 36 -77 67 -131 76 -133 20 -4 20 15 0 53 -9 17 -43 88
-76 160 -123 267 -137 293 -181 329 -42 34 -85 51 -227 88 -41 10 -106 28
-145 38 -38 10 -90 24 -115 31 -25 6 -72 20 -105 30 -34 10 -81 23 -105 28
-44 10 -98 24 -230 61 -36 10 -78 21 -94 25 -15 3 -26 8 -23 11 4 5 59 -7 277
-56 47 -10 99 -21 115 -24 17 -3 51 -9 78 -15 94 -22 142 -32 167 -37 39 -8
209 -44 275 -59 33 -8 78 -17 99 -20 22 -4 65 -19 95 -35 55 -28 68 -42 117
-135 12 -22 38 -71 59 -110 62 -117 158 -298 174 -332 9 -18 24 -32 34 -33 9
0 17 2 17 3 0 4 -76 152 -148 287 -28 52 -72 135 -97 184 -25 49 -58 104 -73
122 -30 36 -123 77 -212 93 -98 18 -164 32 -216 47 -28 8 -61 14 -73 14 -12 0
-54 9 -94 19 -67 18 -180 44 -237 55 -40 8 79 -4 140 -14 30 -5 91 -14 135
-20 44 -7 96 -16 115 -21 19 -5 69 -14 110 -20 374 -49 398 -59 476 -199 11
-20 30 -50 41 -66 11 -16 24 -39 27 -51 4 -13 11 -23 14 -23 4 0 16 -17 27
-38 10 -20 34 -60 52 -89 18 -28 33 -55 33 -59 0 -4 6 -15 14 -23 8 -9 25 -36
38 -61 53 -97 83 -140 101 -140 15 0 13 8 -15 58 -18 31 -47 79 -65 107 -18
27 -33 53 -33 57 0 4 -13 27 -30 51 -16 25 -30 47 -30 50 0 4 -13 26 -30 50
-16 25 -30 50 -30 55 0 6 -6 17 -14 24 -7 8 -24 33 -37 57 -13 23 -31 55 -39
69 -70 124 -143 162 -345 179 -38 3 -73 9 -76 14 -3 5 -34 12 -70 15 -94 10
-111 26 -19 20 41 -3 98 -8 125 -12 30 -4 68 -1 95 7 l45 13 -80 11 -80 12
136 -1 c76 -1 134 -5 132 -10 -3 -5 32 -7 81 -4 47 2 81 1 75 -3 -16 -9 54
-31 75 -23 23 9 1 34 -30 34 -13 0 -24 4 -24 9 0 6 -15 12 -32 14 -18 2 -3 5
34 5 45 1 79 -4 102 -14 38 -19 78 -12 57 9 -6 6 -31 20 -54 30 l-42 18 57 -5
c31 -2 68 -12 82 -22 20 -13 32 -14 49 -7 21 10 21 11 -15 33 -21 12 -38 24
-38 27 0 8 64 -9 87 -24 13 -9 31 -12 43 -8 21 7 21 7 3 27 -18 20 -18 20 19
5 20 -8 40 -12 44 -9 4 4 4 2 1 -4 -10 -18 19 -37 44 -29 22 7 21 8 -12 37
-30 27 -31 30 -10 23 14 -4 33 -16 44 -25 18 -18 45 -17 58 2 3 5 17 -1 31
-12 16 -12 43 -20 70 -21 23 -1 34 -3 23 -6 -11 -3 -24 -9 -29 -13 -12 -12 30
-32 62 -29 45 3 60 0 66 -16 4 -12 2 -13 -13 -3 -10 6 -27 8 -37 4 -18 -7 -18
-8 0 -22 17 -12 60 -19 88 -15 16 2 87 -36 80 -44 -4 -4 4 -4 18 -1 17 5 21 4
11 -2 -10 -7 -3 -16 30 -35 41 -23 54 -28 112 -43 21 -5 21 -5 -3 15 -15 13 1
8 43 -14 38 -19 78 -35 90 -35 18 0 19 -2 7 -10 -11 -7 1 -16 50 -38 69 -32
135 -49 125 -32 -3 5 14 1 37 -10 24 -11 54 -20 68 -20 17 0 21 -3 12 -9 -17
-11 87 -57 148 -65 l45 -6 -37 20 c-60 32 -44 32 27 -1 36 -16 87 -32 112 -36
32 -4 41 -8 29 -13 -26 -9 63 -46 127 -53 54 -5 54 -2 -1 25 -41 20 -29 17 70
-18 37 -13 87 -25 110 -25 37 -1 39 -2 14 -8 -28 -6 -28 -6 20 -23 46 -15 162
-33 152 -23 -3 3 -29 14 -59 24 -30 11 -49 20 -43 20 6 1 44 -10 84 -24 40
-14 96 -25 124 -26 39 -1 45 -3 26 -8 -22 -7 -19 -9 29 -24 30 -10 77 -17 105
-16 l51 1 -55 18 c-74 25 -42 25 40 0 43 -13 94 -20 151 -20 47 0 123 -8 170
-18 56 -12 107 -16 154 -12 39 3 106 0 150 -8 78 -13 180 -11 219 4 14 5 17 4
12 -4 -4 -7 -21 -12 -39 -12 -42 0 -23 -18 23 -21 59 -4 100 1 100 10 0 6 -17
11 -37 13 -21 2 22 3 96 3 74 0 122 -2 105 -5 -24 -5 -20 -7 26 -13 52 -6 86
-3 120 11 8 3 -10 9 -40 13 -45 5 -37 6 45 7 55 0 118 3 140 6 29 5 34 4 20
-3 -25 -12 86 -13 125 -2 l25 7 -25 10 c-20 7 -7 10 60 15 47 3 99 9 115 13
23 5 25 4 10 -3 -31 -15 69 -14 119 1 l41 13 -30 6 c-23 5 -16 7 28 8 32 0 56
5 53 9 -5 8 13 11 104 12 40 1 50 4 35 10 -11 5 -31 9 -44 9 -50 2 -9 14 52
16 35 1 78 9 97 18 18 9 39 17 45 17 7 0 40 9 75 20 34 11 66 17 72 14 5 -3
21 -3 36 1 21 5 23 8 11 16 -11 8 -9 9 7 4 11 -3 38 2 59 11 21 8 46 13 56 11
10 -3 37 -1 60 4 27 6 62 6 102 -2 34 -6 78 -13 97 -14 51 -4 161 -25 189 -36
14 -6 65 -12 115 -14 50 -3 122 -10 159 -16 37 -6 80 -8 95 -5 17 4 22 3 14
-2 -8 -5 19 -7 65 -4 43 2 95 0 116 -6 22 -6 37 -7 37 -1 0 5 17 8 38 8 l37
-2 -35 -8 c-25 -5 -17 -6 30 -3 153 9 409 18 458 17 29 -2 51 1 48 6 -3 4 12
9 32 10 91 4 233 21 298 35 39 8 98 18 130 21 33 4 64 10 69 14 6 5 53 16 105
26 52 9 104 21 115 26 11 6 67 23 125 39 110 30 280 88 333 114 18 8 58 24 90
36 32 12 57 24 54 26 -5 6 -104 -29 -152 -54 -22 -11 -69 -28 -105 -37 -36
-10 -81 -26 -100 -35 -19 -9 -80 -27 -135 -39 -55 -12 -113 -25 -130 -31 -56
-17 -150 -38 -200 -45 -27 -3 -72 -13 -100 -20 -27 -8 -84 -17 -125 -20 -41
-4 -91 -11 -110 -16 -37 -10 -276 -31 -395 -34 -364 -11 -634 4 -975 55 -69
10 -152 22 -185 26 -79 9 -264 7 -340 -5 -135 -20 -187 -30 -218 -40 -101 -32
-479 -96 -747 -127 -189 -22 -784 -30 -1004 -15 -796 57 -1515 246 -2251 593
-104 49 -215 98 -245 109 -80 29 -203 34 -345 15 -447 -62 -742 -81 -1120 -73
-510 12 -968 72 -1465 193 -102 25 -223 52 -270 59 -104 18 -257 17 -365 -1z
m167 -56 c-9 -9 -15 -9 -24 0 -9 9 -7 12 12 12 19 0 21 -3 12 -12z m-107 -8
c-3 -5 -13 -10 -21 -10 -8 0 -12 5 -9 10 3 6 13 10 21 10 8 0 12 -4 9 -10z
m280 -10 c3 -5 -1 -10 -9 -10 -8 0 -18 5 -21 10 -3 6 1 10 9 10 8 0 18 -4 21
-10z m-395 -10 c-20 -13 -33 -13 -25 0 3 6 14 10 23 10 15 0 15 -2 2 -10z
m177 -7 c5 -15 -28 -26 -41 -13 -8 8 -7 14 4 20 17 11 32 8 37 -7z m-297 -8
c0 -2 -10 -9 -22 -15 -22 -11 -22 -10 -4 4 21 17 26 19 26 11z m180 -5 c0 -16
-38 -32 -46 -19 -7 12 12 29 34 29 6 0 12 -4 12 -10z m537 -6 c-3 -3 -12 -4
-19 -1 -8 3 -5 6 6 6 11 1 17 -2 13 -5z m-676 -24 c-25 -22 -41 -26 -41 -10 0
11 30 29 50 29 10 0 8 -6 -9 -19z m193 1 c9 -14 -28 -41 -44 -31 -11 7 -11 11
-1 24 15 17 37 21 45 7z m-314 -9 c0 -10 -50 -35 -57 -28 -3 2 8 11 24 20 34
18 33 18 33 8z m190 -12 c0 -5 -11 -17 -26 -26 -19 -13 -28 -14 -36 -6 -9 9
-7 16 8 27 22 16 54 20 54 5z m-140 -20 c0 -18 -50 -44 -62 -32 -7 7 -2 15 18
26 34 18 44 19 44 6z m190 -10 c24 -15 -20 -55 -50 -45 l-22 7 23 24 c25 27
28 28 49 14z m-420 -4 c0 -2 -7 -7 -16 -10 -8 -3 -12 -2 -9 4 6 10 25 14 25 6z
m85 -6 c6 -9 -44 -40 -65 -40 -26 0 13 35 57 49 1 1 4 -3 8 -9z m205 -19 c0
-13 -55 -48 -67 -44 -21 7 -15 27 14 45 25 15 53 15 53 -1z m-395 -31 c-33
-22 -45 -25 -45 -12 0 11 39 30 60 31 8 1 2 -8 -15 -19z m245 11 c0 -5 -14
-19 -30 -31 -25 -18 -33 -20 -46 -9 -13 10 -11 14 13 30 31 19 63 24 63 10z
m186 -56 c-23 -18 -34 -21 -48 -14 -26 14 -23 24 15 48 29 18 34 19 47 5 13
-14 12 -18 -14 -39z m-342 37 c8 -14 -74 -56 -85 -45 -7 7 1 18 23 31 35 23
54 27 62 14z m-287 -28 c-16 -9 -31 -13 -34 -10 -3 3 5 10 18 15 37 15 47 12
16 -5z m500 1 c1 -5 -13 -21 -32 -34 -30 -20 -37 -22 -51 -10 -15 12 -13 15
12 36 29 23 65 27 71 8z m-377 0 c0 -12 -84 -46 -98 -40 -13 6 -8 11 23 25 39
18 75 25 75 15z m217 -20 c4 -14 -66 -58 -83 -51 -22 9 -17 22 19 45 33 21 58
24 64 6z m369 1 c19 -14 19 -15 -5 -40 -28 -30 -53 -33 -72 -10 -11 13 -8 19
17 39 35 29 35 29 60 11z m-539 -22 c2 -6 -15 -20 -37 -33 -34 -19 -44 -21
-56 -10 -14 11 -10 16 28 35 44 24 59 25 65 8z m393 -12 c0 -5 -13 -21 -29
-36 -24 -24 -32 -26 -50 -17 -28 16 -27 25 11 55 24 19 36 22 50 15 10 -5 18
-13 18 -17z m3077 22 c-3 -3 -12 -4 -19 -1 -8 3 -5 6 6 6 11 1 17 -2 13 -5z
m-3765 -25 c-23 -11 -48 -17 -54 -13 -13 8 44 33 77 32 12 0 4 -7 -23 -19z
m118 -7 c0 -12 -90 -53 -101 -47 -17 11 -9 23 29 38 41 18 72 21 72 9z m399
-6 c16 -20 -55 -74 -78 -59 -24 15 -20 31 14 53 35 23 49 25 64 6z m2676 4
l30 -8 -30 0 c-16 0 -43 4 -60 8 l-30 8 30 0 c17 0 44 -4 60 -8z m-2846 -24
c16 -19 -65 -73 -88 -59 -26 16 -22 27 17 49 45 26 56 28 71 10z m392 -6 c27
-15 24 -33 -11 -58 -35 -26 -38 -27 -62 -5 -18 16 -18 17 9 45 30 31 36 33 64
18z m-564 -15 c2 -6 -18 -23 -43 -38 -36 -22 -49 -25 -60 -16 -22 18 -17 27
24 49 38 20 73 23 79 5z m394 -5 c28 -15 24 -31 -17 -64 l-36 -28 -21 21 -22
22 35 29 c41 34 36 33 61 20z m-167 -29 c16 -18 15 -20 -22 -50 -47 -37 -58
-38 -72 -10 -13 23 -13 23 32 55 41 28 41 28 62 5z m-180 -20 c16 -18 15 -20
-34 -51 -49 -31 -51 -32 -65 -14 -21 27 -19 30 28 57 52 31 50 31 71 8z m422
-22 c21 -23 14 -41 -29 -73 l-27 -20 -26 25 -26 24 39 32 c21 18 41 33 44 33
3 0 14 -9 25 -21z m-198 -81 l-43 -37 -22 21 c-13 12 -23 25 -23 29 0 4 19 21
42 38 l42 31 24 -22 23 -23 -43 -37z m-161 35 c13 -20 11 -24 -34 -58 l-48
-36 -17 21 c-25 31 -23 35 25 69 47 34 54 34 74 4z m254 -49 l24 -26 -43 -40
-44 -40 -29 28 -30 29 43 37 c24 21 46 38 49 38 3 0 16 -12 30 -26z m-211 -85
c-25 -21 -49 -39 -53 -39 -10 0 -46 41 -47 52 0 4 21 23 47 43 l47 36 25 -26
26 -26 -45 -40z m87 -11 c13 -12 23 -27 23 -33 0 -6 -19 -30 -43 -53 l-43 -42
-21 22 c-38 43 -38 48 8 89 24 21 46 38 48 39 3 0 15 -10 28 -22z m4940 -4
c-3 -3 -12 -4 -19 -1 -8 3 -5 6 6 6 11 1 17 -2 13 -5z"/>
<path d="M6718 902 c-10 -2 -18 -8 -18 -13 0 -13 50 -23 60 -13 12 12 -19 31
-42 26z"/>
<path d="M6530 881 c0 -16 27 -31 44 -25 13 5 14 9 5 20 -13 15 -49 19 -49 5z"/>
<path d="M6652 871 c-18 -11 12 -35 34 -27 13 5 14 9 4 21 -14 17 -20 18 -38
6z"/>
<path d="M14604 864 c-18 -14 -18 -14 6 -3 31 14 36 19 24 19 -6 0 -19 -7 -30
-16z"/>
<path d="M6450 851 c0 -16 30 -33 46 -27 13 5 14 9 4 21 -13 16 -50 21 -50 6z"/>
<path d="M6766 851 c-9 -13 19 -32 38 -25 20 8 21 20 0 28 -22 8 -32 8 -38 -3z"/>
<path d="M6582 843 c-18 -7 4 -33 29 -33 22 0 24 11 7 28 -13 13 -16 13 -36 5z"/>
<path d="M6362 822 c-20 -13 22 -47 43 -35 16 9 16 11 0 26 -18 19 -24 20 -43
9z"/>
<path d="M6707 823 c-18 -17 10 -37 38 -27 12 5 13 10 4 20 -12 15 -31 18 -42
7z"/>
<path d="M5895 796 l-30 -13 48 -7 c31 -5 68 -3 100 5 50 12 51 13 22 20 -49
11 -108 9 -140 -5z"/>
<path d="M6496 802 c-9 -14 21 -35 40 -28 8 3 14 12 12 19 -6 15 -44 22 -52 9z"/>
<path d="M6826 801 c-9 -15 18 -31 42 -24 18 4 20 8 11 19 -13 16 -45 19 -53
5z"/>
<path d="M6640 790 c-13 -8 -13 -11 0 -24 10 -10 20 -12 30 -6 13 8 13 11 0
24 -10 10 -20 12 -30 6z"/>
<path d="M6050 778 c-24 -11 -23 -12 22 -21 27 -5 56 -6 65 -2 17 6 17 7 -1
21 -23 16 -51 17 -86 2z"/>
<path d="M6267 783 c-19 -18 19 -48 43 -33 11 7 11 11 1 24 -14 17 -33 21 -44
9z"/>
<path d="M6765 770 c-9 -15 3 -30 24 -30 25 0 33 11 20 27 -13 15 -35 17 -44
3z"/>
<path d="M14425 770 c-3 -6 1 -7 9 -4 18 7 21 14 7 14 -6 0 -13 -4 -16 -10z"/>
<path d="M6412 753 c4 -22 43 -25 43 -3 0 8 -11 16 -23 18 -19 3 -23 0 -20
-15z"/>
<path d="M6560 750 c-13 -8 -13 -11 2 -27 14 -13 20 -15 30 -5 17 17 -11 45
-32 32z"/>
<path d="M6979 744 c23 -16 111 -47 111 -39 0 13 -79 55 -105 55 l-29 0 23
-16z"/>
<path d="M6156 741 c-17 -7 -17 -9 9 -29 35 -28 55 -29 48 -2 -7 26 -32 40
-57 31z"/>
<path d="M6890 740 c0 -14 37 -31 55 -24 12 5 13 9 4 20 -13 16 -59 19 -59 4z"/>
<path d="M6694 729 c-10 -16 18 -40 35 -29 12 7 12 11 2 24 -16 19 -27 20 -37
5z"/>
<path d="M14326 725 c-11 -8 -16 -15 -10 -15 5 0 18 7 28 15 11 8 16 15 10 15
-5 0 -18 -7 -28 -15z"/>
<path d="M6316 721 c-3 -4 1 -17 9 -27 10 -15 16 -16 26 -7 6 6 9 19 6 27 -7
17 -32 22 -41 7z"/>
<path d="M6832 711 c-18 -11 12 -35 34 -27 13 5 14 9 4 21 -14 17 -20 18 -38
6z"/>
<path d="M6464 699 c-9 -15 18 -40 34 -30 15 9 5 41 -13 41 -8 0 -17 -5 -21
-11z"/>
<path d="M6610 675 c0 -18 24 -30 39 -21 16 10 1 36 -20 36 -10 0 -19 -7 -19
-15z"/>
<path d="M6212 664 c3 -19 34 -41 43 -32 4 4 4 16 0 27 -8 25 -48 29 -43 5z"/>
<path d="M6761 667 c-15 -19 11 -42 34 -30 14 8 14 11 -3 26 -16 15 -21 15
-31 4z"/>
<path d="M6989 660 c13 -11 35 -20 49 -20 24 0 25 0 7 20 -11 12 -30 20 -49
20 l-31 -1 24 -19z"/>
<path d="M7110 652 c25 -16 61 -32 80 -36 l34 -6 -39 29 c-22 16 -58 32 -80
36 l-40 7 45 -30z"/>
<path d="M6366 651 c-10 -15 19 -42 37 -36 13 6 14 11 6 26 -10 20 -34 25 -43
10z"/>
<path d="M6910 650 c-13 -8 -13 -11 0 -24 10 -10 20 -12 30 -6 13 8 13 11 0
24 -10 10 -20 12 -30 6z"/>
<path d="M7220 646 c0 -12 88 -55 125 -61 44 -7 38 1 -25 34 -36 19 -100 37
-100 27z"/>
<path d="M6524 629 c-10 -16 18 -40 35 -29 12 7 12 11 2 24 -16 19 -27 20 -37
5z"/>
<path d="M6260 595 c5 -14 19 -35 30 -47 11 -12 20 -27 20 -32 0 -6 12 -24 26
-41 14 -16 33 -43 41 -59 8 -16 19 -34 24 -40 5 -6 64 -93 131 -193 85 -129
126 -183 139 -183 16 0 14 7 -15 53 -51 79 -104 159 -124 185 -9 13 -24 36
-32 50 -8 15 -26 43 -40 62 -14 19 -30 42 -35 51 -6 9 -34 51 -62 93 -29 42
-53 80 -53 85 0 11 -34 41 -48 41 -8 0 -9 -7 -2 -25z"/>
<path d="M6677 614 c-9 -10 12 -34 30 -34 19 0 12 34 -8 38 -8 1 -18 0 -22 -4z"/>
<path d="M6832 597 c-10 -11 -9 -17 3 -27 24 -20 45 4 24 26 -14 13 -17 13
-27 1z"/>
<path d="M7093 575 c17 -15 40 -25 60 -25 l31 0 -34 25 c-19 14 -45 25 -59 25
l-26 -1 28 -24z"/>
<path d="M6432 581 c-7 -4 -10 -15 -6 -24 7 -20 44 -23 44 -3 0 19 -23 36 -38
27z"/>
<path d="M6980 571 c0 -16 27 -31 44 -25 13 5 14 9 5 20 -13 15 -49 19 -49 5z"/>
<path d="M7240 557 c32 -22 100 -45 100 -33 0 13 -60 45 -95 51 l-40 7 35 -25z"/>
<path d="M6590 560 c-11 -7 -11 -11 -1 -24 16 -20 41 -21 41 -2 0 21 -23 36
-40 26z"/>
<path d="M7360 556 c0 -11 77 -50 111 -56 46 -9 42 3 -9 29 -35 17 -102 35
-102 27z"/>
<path d="M6750 540 c-13 -8 -13 -11 2 -27 14 -13 20 -15 30 -5 17 17 -11 45
-32 32z"/>
<path d="M6905 520 c-4 -7 -3 -16 3 -22 14 -14 45 -2 40 15 -6 16 -34 21 -43
7z"/>
<path d="M7567 499 c74 -36 136 -38 66 -1 -22 12 -61 24 -85 27 l-43 5 62 -31z"/>
<path d="M6486 491 c-3 -4 1 -17 9 -27 10 -15 16 -16 26 -7 6 6 9 19 6 27 -7
17 -32 22 -41 7z"/>
<path d="M7082 493 c-21 -8 6 -33 36 -33 24 0 25 1 7 20 -19 21 -22 22 -43 13z"/>
<path d="M7215 475 c17 -13 38 -24 47 -25 9 0 25 -3 35 -7 16 -6 17 -5 3 12
-17 20 -70 45 -97 45 -14 0 -11 -6 12 -25z"/>
<path d="M6654 469 c-9 -15 18 -40 34 -30 15 9 5 41 -13 41 -8 0 -17 -5 -21
-11z"/>
<path d="M7379 456 c20 -14 48 -26 64 -26 l30 0 -26 21 c-15 11 -44 23 -64 26
l-38 5 34 -26z"/>
<path d="M6823 454 c-8 -20 9 -36 30 -28 13 5 14 10 6 25 -12 23 -28 25 -36 3z"/>
<path d="M7545 435 c22 -14 54 -25 70 -25 l30 1 -40 24 c-22 14 -53 25 -70 25
l-30 -1 40 -24z"/>
<path d="M6982 433 c4 -22 43 -25 43 -3 0 8 -11 16 -23 18 -19 3 -23 0 -20
-15z"/>
<path d="M7660 444 c0 -9 75 -43 109 -49 49 -8 52 -1 9 22 -28 14 -118 35
-118 27z"/>
<path d="M7850 406 c25 -13 68 -26 95 -29 l50 -6 -45 23 c-25 13 -67 26 -95
30 l-50 6 45 -24z"/>
<path d="M6555 399 c-4 -5 1 -19 11 -30 16 -18 19 -18 27 -4 14 27 -23 60 -38
34z"/>
<path d="M6732 388 c-14 -14 2 -38 24 -38 18 0 18 24 1 39 -10 8 -17 7 -25 -1z"/>
<path d="M7195 370 c11 -12 31 -20 49 -20 l31 0 -25 20 c-14 11 -36 20 -49 20
-23 0 -24 -1 -6 -20z"/>
<path d="M7355 365 c28 -23 93 -36 81 -16 -8 13 -72 41 -93 41 -15 -1 -12 -5
12 -25z"/>
<path d="M6896 371 c-3 -4 3 -16 13 -25 21 -19 37 -7 27 19 -6 16 -32 20 -40
6z"/>
<path d="M7519 356 c19 -14 48 -26 64 -26 l30 0 -25 19 c-13 11 -42 22 -64 26
l-39 7 34 -26z"/>
<path d="M11084 365 c-18 -13 -18 -14 4 -8 12 3 25 9 28 14 8 14 -10 11 -32
-6z"/>
<path d="M7072 362 c-10 -7 -8 -12 5 -25 25 -21 53 -7 34 17 -15 18 -21 19
-39 8z"/>
<path d="M7685 346 c22 -14 54 -26 70 -26 l30 0 -32 21 c-17 11 -49 22 -70 25
l-38 5 40 -25z"/>
<path d="M7840 339 c34 -21 110 -38 110 -25 0 12 -84 46 -115 46 l-30 0 35
-21z"/>
<path d="M8000 331 c36 -19 120 -38 120 -26 0 12 -86 45 -120 44 l-35 0 35
-18z"/>
<path d="M6608 333 c7 -3 16 -2 19 1 4 3 -2 6 -13 5 -11 0 -14 -3 -6 -6z"/>
<path d="M8160 321 c19 -10 60 -21 90 -24 l55 -6 -50 24 c-27 13 -68 24 -90
24 l-40 0 35 -18z"/>
<path d="M6625 291 c8 -17 19 -31 23 -31 4 0 18 -17 32 -38 24 -36 68 -96 132
-179 18 -24 41 -43 50 -43 15 0 11 10 -19 52 -21 29 -48 64 -60 78 -13 14 -23
28 -23 32 0 5 -15 25 -34 45 -18 21 -42 54 -53 73 -12 21 -29 36 -42 38 -22 3
-22 3 -6 -27z"/>
<path d="M10848 313 c7 -3 16 -2 19 1 4 3 -2 6 -13 5 -11 0 -14 -3 -6 -6z"/>
<path d="M6804 289 c-10 -17 23 -46 38 -31 8 8 8 15 -2 27 -15 18 -26 19 -36
4z"/>
<path d="M6980 276 c0 -7 7 -19 15 -26 12 -10 16 -9 21 3 3 9 3 21 -1 27 -9
15 -35 12 -35 -4z"/>
<path d="M7329 250 c13 -11 35 -20 49 -20 24 0 25 0 7 20 -11 12 -30 20 -49
20 l-31 -1 24 -19z"/>
<path d="M7499 250 c13 -11 35 -20 49 -20 24 0 25 0 7 20 -11 12 -30 20 -49
20 l-31 -1 24 -19z"/>
<path d="M7665 250 c17 -11 44 -20 60 -20 l30 0 -30 20 c-16 11 -43 20 -60 20
l-30 0 30 -20z"/>
<path d="M7830 250 c14 -11 41 -20 60 -20 l35 0 -30 20 c-16 11 -43 20 -60 20
l-30 0 25 -20z"/>
<path d="M7970 265 c0 -11 62 -35 92 -35 l33 0 -30 20 c-26 17 -95 28 -95 15z"/>
<path d="M8160 250 c19 -11 53 -19 75 -19 l40 1 -40 19 c-22 10 -56 18 -75 18
l-35 0 35 -19z"/>
<path d="M8320 250 c20 -11 55 -19 80 -19 l45 -1 -44 20 c-24 11 -60 20 -80
20 l-36 -1 35 -19z"/>
<path d="M8475 251 c23 -11 61 -19 90 -19 l50 0 -35 15 c-19 9 -60 18 -90 20
l-55 3 40 -19z"/>
<path d="M7177 239 c13 -14 28 -19 38 -15 25 9 0 36 -33 36 l-26 0 21 -21z"/>
<path d="M10688 246 c-16 -5 -28 -13 -28 -17 0 -10 71 -2 82 9 14 14 -23 20
-54 8z"/>
<path d="M8950 204 c25 -7 72 -13 105 -13 l60 1 -40 13 c-22 8 -69 14 -105 14
l-65 0 45 -15z"/>
<path d="M10808 213 c7 -3 16 -2 19 1 4 3 -2 6 -13 5 -11 0 -14 -3 -6 -6z"/>
<path d="M8640 201 c-25 -7 -24 -7 9 -19 19 -7 52 -12 75 -12 40 1 40 1 16 14
-35 19 -71 25 -100 17z"/>
<path d="M8800 195 c19 -7 60 -13 90 -13 l55 0 -35 13 c-19 7 -60 13 -90 13
l-55 0 35 -13z"/>
<path d="M10370 194 l-35 -12 50 -1 c28 0 64 6 80 14 l30 14 -45 -1 c-25 -1
-61 -7 -80 -14z"/>
<path d="M6884 189 c-10 -16 23 -46 36 -33 6 6 8 18 4 27 -7 19 -29 22 -40 6z"/>
<path d="M7064 189 c-10 -17 23 -46 38 -31 8 8 8 15 -2 27 -15 18 -26 19 -36
4z"/>
<path d="M8450 195 c0 -11 75 -35 109 -35 l36 1 -35 19 c-31 17 -110 28 -110
15z"/>
<path d="M9270 191 l-45 -6 65 -12 c39 -8 81 -9 105 -5 l40 8 -49 8 c-27 4
-54 9 -60 10 -6 2 -31 0 -56 -3z"/>
<path d="M10535 191 c-6 -5 -19 -11 -30 -14 -11 -3 -1 -5 21 -6 23 0 57 6 75
14 l34 14 -45 1 c-26 0 -50 -4 -55 -9z"/>
<path d="M8290 184 c0 -8 67 -34 90 -34 28 0 25 14 -5 28 -26 12 -85 16 -85 6z"/>
<path d="M7972 173 c-22 -9 19 -32 58 -33 l35 0 -30 20 c-31 20 -40 22 -63 13z"/>
<path d="M8149 161 c18 -10 44 -16 57 -13 23 4 23 5 7 18 -10 7 -36 13 -58 13
l-40 0 34 -18z"/>
<path d="M9112 171 c-20 -12 20 -21 93 -20 l60 0 -45 15 c-51 16 -89 18 -108
5z"/>
<path d="M10060 165 l-45 -13 65 0 c36 0 76 4 90 8 l25 8 -25 1 c-14 1 -34 3
-45 5 -11 3 -40 -1 -65 -9z"/>
<path d="M7805 150 c12 -13 31 -20 54 -20 l36 0 -30 20 c-16 11 -41 20 -54 20
-23 0 -24 -1 -6 -20z"/>
<path d="M7635 140 c11 -12 30 -20 49 -20 l31 1 -24 19 c-13 11 -35 20 -49 20
-24 0 -25 0 -7 -20z"/>
<path d="M8955 145 c38 -18 125 -21 107 -3 -6 6 -40 13 -74 15 -61 3 -62 2
-33 -12z"/>
<path d="M9425 151 c-30 -12 64 -24 112 -15 l38 8 -30 7 c-41 9 -96 9 -120 0z"/>
<path d="M9740 151 c-22 -6 -19 -8 22 -15 26 -4 64 -4 85 0 35 7 36 8 13 15
-32 9 -88 9 -120 0z"/>
<path d="M10228 153 c-28 -7 -21 -23 10 -23 37 0 72 10 72 21 0 9 -51 10 -82
2z"/>
<path d="M7292 143 c-21 -8 17 -43 46 -43 21 0 23 2 12 16 -18 21 -42 32 -58
27z"/>
<path d="M7465 130 c17 -18 65 -28 65 -14 0 13 -36 33 -59 34 -23 0 -24 -1 -6
-20z"/>
<path d="M8795 141 c-17 -7 -14 -10 18 -20 22 -7 50 -10 65 -6 l27 7 -35 13
c-41 16 -48 16 -75 6z"/>
<path d="M9275 131 l-30 -7 40 -10 c22 -5 58 -7 80 -4 l40 5 -41 13 c-44 13
-44 13 -89 3z"/>
<path d="M9915 125 c-30 -13 -30 -13 25 -14 30 0 62 4 70 9 12 8 9 10 -12 10
-14 0 -32 2 -40 5 -7 2 -26 -2 -43 -10z"/>
<path d="M10372 131 c-26 -16 36 -22 70 -7 l33 14 -45 1 c-25 0 -51 -3 -58 -8z"/>
<path d="M8610 124 c0 -14 69 -33 96 -25 l29 7 -34 12 c-35 12 -91 16 -91 6z"/>
<path d="M9595 121 l-30 -7 25 -7 c36 -10 92 -8 110 3 13 8 13 10 -1 10 -9 0
-29 2 -45 4 -16 2 -42 1 -59 -3z"/>
<path d="M10525 115 l-30 -13 43 -1 c23 -1 42 3 42 8 0 16 -25 19 -55 6z"/>
<path d="M8460 95 c14 -8 43 -14 65 -14 40 0 40 0 15 14 -14 8 -43 14 -65 14
-40 0 -40 0 -15 -14z"/>
<path d="M9106 100 c15 -15 79 -24 101 -15 16 7 15 9 -7 15 -39 12 -106 12
-94 0z"/>
<path d="M10065 101 c-18 -7 -16 -9 11 -15 36 -8 87 2 78 15 -6 11 -61 11 -89
0z"/>
<path d="M6971 77 c13 -24 69 -77 82 -77 5 0 3 10 -6 22 -8 13 -20 22 -26 21
-6 -2 -8 4 -5 12 8 20 -13 44 -36 42 -15 -1 -17 -5 -9 -20z"/>
<path d="M7154 89 c-10 -16 22 -43 42 -35 16 6 16 8 -1 26 -20 23 -31 25 -41
9z"/>
<path d="M8286 91 c-8 -12 47 -33 76 -29 22 3 22 4 -9 21 -35 19 -59 22 -67 8z"/>
<path d="M9445 90 c-16 -3 -25 -8 -20 -11 22 -13 62 -17 95 -10 l35 7 -40 10
c-22 5 -53 7 -70 4z"/>
<path d="M9779 92 c-40 -11 -42 -15 -12 -22 35 -8 83 -2 83 10 0 9 -51 18 -71
12z"/>
<path d="M8950 83 c-24 -5 -24 -5 8 -19 20 -8 46 -11 65 -7 l32 7 -30 12 c-32
14 -35 14 -75 7z"/>
<path d="M10230 77 c-25 -11 -24 -11 12 -15 21 -2 46 1 55 7 16 9 16 10 1 11
-9 0 -22 2 -30 4 -7 3 -24 0 -38 -7z"/>
<path d="M8129 60 c23 -20 52 -26 64 -13 11 11 -27 32 -58 32 l-30 0 24 -19z"/>
<path d="M10622 68 c6 -18 28 -21 28 -4 0 9 -7 16 -16 16 -9 0 -14 -5 -12 -12z"/>
<path d="M7940 55 c0 -2 11 -11 24 -20 28 -19 63 -10 45 11 -10 13 -69 20 -69
9z"/>
<path d="M8784 45 c11 -8 38 -15 60 -15 41 1 41 1 16 15 -14 8 -41 14 -60 14
-33 0 -34 -1 -16 -14z"/>
<path d="M9265 51 c-8 -13 58 -25 87 -15 22 7 22 7 3 15 -28 11 -83 11 -90 0z"/>
<path d="M9905 51 c-16 -7 -14 -9 14 -14 38 -8 84 1 75 14 -6 11 -61 11 -89 0z"/>
<path d="M10372 51 c-10 -6 -6 -10 14 -14 31 -6 54 0 54 14 0 11 -51 11 -68 0z"/>
<path d="M7770 42 c0 -17 25 -32 55 -32 l30 0 -25 20 c-25 20 -60 27 -60 12z"/>
<path d="M9586 41 c-8 -12 50 -22 81 -15 18 5 21 9 11 15 -17 11 -85 11 -92 0z"/>
<path d="M8617 31 c-17 -6 -16 -8 8 -19 30 -14 62 -16 69 -3 3 4 -6 13 -20 20
-28 12 -31 13 -57 2z"/>
<path d="M7590 21 c0 -11 25 -21 52 -21 17 0 18 3 8 15 -13 16 -60 21 -60 6z"/>
<path d="M9110 21 l-25 -7 25 -7 c14 -4 43 -7 65 -6 l40 0 -34 14 c-36 16 -35
16 -71 6z"/>
<path d="M10072 23 c-6 -2 -10 -9 -6 -14 7 -11 54 -12 72 0 24 15 -33 28 -66
14z"/>
<path d="M10490 10 c-12 -8 -9 -10 13 -10 16 0 26 4 22 10 -8 12 -16 12 -35 0z"/>
<path d="M7423 3 c9 -2 23 -2 30 0 6 3 -1 5 -18 5 -16 0 -22 -2 -12 -5z"/>
<path d="M8443 3 c9 -2 25 -2 35 0 9 3 1 5 -18 5 -19 0 -27 -2 -17 -5z"/>
<path d="M9453 3 c9 -2 23 -2 30 0 6 3 -1 5 -18 5 -16 0 -22 -2 -12 -5z"/>
<path d="M9773 3 c9 -2 25 -2 35 0 9 3 1 5 -18 5 -19 0 -27 -2 -17 -5z"/>
<path d="M10688 3 c7 -3 16 -2 19 1 4 3 -2 6 -13 5 -11 0 -14 -3 -6 -6z"/>
</g>
</svg>
