<svg width="71" height="71" viewBox="0 0 71 71" fill="none" xmlns="http://www.w3.org/2000/svg">
<g clip-path="url(#clip0_82_10043)">
<path d="M35.25 70.75C54.6459 70.75 70.25 55.1459 70.25 35.75C70.25 16.3541 54.6459 0.75 35.25 0.75C15.8541 0.75 0.25 16.3541 0.25 35.75C0.25 55.1459 15.8541 70.75 35.25 70.75Z" fill="#2775CA"/>
<path d="M44.8746 41.2915C44.8746 36.1875 41.8121 34.4375 35.6871 33.7084C31.3121 33.125 30.4371 31.9584 30.4371 29.9165C30.4371 27.8746 31.8955 26.5625 34.8121 26.5625C37.4371 26.5625 38.8955 27.4375 39.6246 29.625C39.7705 30.0625 40.208 30.354 40.6455 30.354H42.9786C43.5621 30.354 43.9996 29.9165 43.9996 29.3334V29.1875C43.4161 25.979 40.7911 23.5 37.4371 23.2084V19.7084C37.4371 19.125 36.9996 18.6875 36.2705 18.5415H34.083C33.4996 18.5415 33.0621 18.979 32.9161 19.7084V23.0625C28.5411 23.6459 25.7705 26.5625 25.7705 30.2084C25.7705 35.0209 28.6871 36.9165 34.8121 37.6459C38.8955 38.375 40.208 39.25 40.208 41.5834C40.208 43.9169 38.1661 45.5209 35.3955 45.5209C31.6036 45.5209 30.2911 43.9165 29.8536 41.729C29.708 41.1459 29.2705 40.854 28.833 40.854H26.3536C25.7705 40.854 25.333 41.2915 25.333 41.875V42.0209C25.9161 45.6665 28.2496 48.2915 33.0621 49.0209V52.5209C33.0621 53.104 33.4996 53.5415 34.2286 53.6875H36.4161C36.9996 53.6875 37.4371 53.25 37.583 52.5209V49.0209C41.958 48.2915 44.8746 45.229 44.8746 41.2915Z" fill="white"/>
<path fill-rule="evenodd" clip-rule="evenodd" d="M14.8334 28.6041C10.604 39.8335 16.4374 52.521 27.8124 56.6041C28.2499 56.896 28.6874 57.4791 28.6874 57.9166V59.9584C28.6874 60.25 28.6874 60.3959 28.5415 60.5417C28.3959 61.125 27.8124 61.4167 27.229 61.125C19.0624 58.5 12.7915 52.2291 10.1665 44.0625C5.79146 30.2085 13.3749 15.4791 27.229 11.1041C27.3749 10.9585 27.6665 10.9585 27.8124 10.9585C28.3959 11.1041 28.6874 11.5416 28.6874 12.125V14.1666C28.6874 14.896 28.3959 15.3335 27.8124 15.625C21.8334 17.8125 17.0209 22.4791 14.8334 28.6041ZM41.9584 11.6875C42.104 11.1041 42.6874 10.8125 43.2709 11.1041C51.2915 13.7291 57.7084 20 60.3332 28.3125C64.7082 42.1666 57.1249 56.896 43.2709 61.2709C43.1249 61.4167 42.8334 61.4167 42.6874 61.4167C42.104 61.2709 41.8124 60.8334 41.8124 60.25V58.2085C41.8124 57.4791 42.104 57.0416 42.6874 56.75C48.6665 54.5625 53.479 49.896 55.6665 43.771C59.8957 32.5416 54.0624 19.8541 42.6874 15.771C42.2499 15.4791 41.8124 14.896 41.8124 14.3125V12.271C41.8124 11.9791 41.8124 11.8335 41.9584 11.6875Z" fill="white"/>
</g>
<defs>
<clipPath id="clip0_82_10043">
<rect width="70" height="70" fill="white" transform="translate(0.25 0.75)"/>
</clipPath>
</defs>
</svg>
