<svg width="657" height="389" viewBox="0 0 657 389" fill="none" xmlns="http://www.w3.org/2000/svg">
<rect width="657" height="388.5" rx="30" fill="#232842"/>
<path d="M78.9688 371.828C78.9688 371.161 79.1979 370.604 79.6562 370.156C80.125 369.708 80.7448 369.484 81.5156 369.484C82.2865 369.484 82.901 369.708 83.3594 370.156C83.8281 370.604 84.0625 371.161 84.0625 371.828C84.0625 372.495 83.8281 373.052 83.3594 373.5C82.901 373.948 82.2865 374.172 81.5156 374.172C80.7448 374.172 80.125 373.948 79.6562 373.5C79.1979 373.052 78.9688 372.495 78.9688 371.828Z" fill="white"/>
<path d="M78.9688 345.828C78.9688 345.161 79.1979 344.604 79.6562 344.156C80.125 343.708 80.7448 343.484 81.5156 343.484C82.2865 343.484 82.901 343.708 83.3594 344.156C83.8281 344.604 84.0625 345.161 84.0625 345.828C84.0625 346.495 83.8281 347.052 83.3594 347.5C82.901 347.948 82.2865 348.172 81.5156 348.172C80.7448 348.172 80.125 347.948 79.6562 347.5C79.1979 347.052 78.9688 346.495 78.9688 345.828Z" fill="white" fill-opacity="0.6"/>
<path d="M78.9688 319.828C78.9688 319.161 79.1979 318.604 79.6562 318.156C80.125 317.708 80.7448 317.484 81.5156 317.484C82.2865 317.484 82.901 317.708 83.3594 318.156C83.8281 318.604 84.0625 319.161 84.0625 319.828C84.0625 320.495 83.8281 321.052 83.3594 321.5C82.901 321.948 82.2865 322.172 81.5156 322.172C80.7448 322.172 80.125 321.948 79.6562 321.5C79.1979 321.052 78.9688 320.495 78.9688 319.828Z" fill="white" fill-opacity="0.6"/>
<path d="M78.9688 293.828C78.9688 293.161 79.1979 292.604 79.6562 292.156C80.125 291.708 80.7448 291.484 81.5156 291.484C82.2865 291.484 82.901 291.708 83.3594 292.156C83.8281 292.604 84.0625 293.161 84.0625 293.828C84.0625 294.495 83.8281 295.052 83.3594 295.5C82.901 295.948 82.2865 296.172 81.5156 296.172C80.7448 296.172 80.125 295.948 79.6562 295.5C79.1979 295.052 78.9688 294.495 78.9688 293.828Z" fill="white" fill-opacity="0.4"/>
<path d="M78.9688 267.828C78.9688 267.161 79.1979 266.604 79.6562 266.156C80.125 265.708 80.7448 265.484 81.5156 265.484C82.2865 265.484 82.901 265.708 83.3594 266.156C83.8281 266.604 84.0625 267.161 84.0625 267.828C84.0625 268.495 83.8281 269.052 83.3594 269.5C82.901 269.948 82.2865 270.172 81.5156 270.172C80.7448 270.172 80.125 269.948 79.6562 269.5C79.1979 269.052 78.9688 268.495 78.9688 267.828Z" fill="white" fill-opacity="0.3"/>
<path d="M78.9688 241.828C78.9688 241.161 79.1979 240.604 79.6562 240.156C80.125 239.708 80.7448 239.484 81.5156 239.484C82.2865 239.484 82.901 239.708 83.3594 240.156C83.8281 240.604 84.0625 241.161 84.0625 241.828C84.0625 242.495 83.8281 243.052 83.3594 243.5C82.901 243.948 82.2865 244.172 81.5156 244.172C80.7448 244.172 80.125 243.948 79.6562 243.5C79.1979 243.052 78.9688 242.495 78.9688 241.828Z" fill="white" fill-opacity="0.1"/>
<path d="M36.9688 371.828C36.9688 371.161 37.1979 370.604 37.6562 370.156C38.125 369.708 38.7448 369.484 39.5156 369.484C40.2865 369.484 40.901 369.708 41.3594 370.156C41.8281 370.604 42.0625 371.161 42.0625 371.828C42.0625 372.495 41.8281 373.052 41.3594 373.5C40.901 373.948 40.2865 374.172 39.5156 374.172C38.7448 374.172 38.125 373.948 37.6562 373.5C37.1979 373.052 36.9688 372.495 36.9688 371.828Z" fill="white" fill-opacity="0.8"/>
<path d="M247 372.344C247 371.677 247.229 371.12 247.688 370.672C248.156 370.224 248.776 370 249.547 370C250.318 370 250.932 370.224 251.391 370.672C251.859 371.12 252.094 371.677 252.094 372.344C252.094 373.01 251.859 373.568 251.391 374.016C250.932 374.464 250.318 374.688 249.547 374.688C248.776 374.688 248.156 374.464 247.688 374.016C247.229 373.568 247 373.01 247 372.344Z" fill="white"/>
<path d="M36.9688 345.828C36.9688 345.161 37.1979 344.604 37.6562 344.156C38.125 343.708 38.7448 343.484 39.5156 343.484C40.2865 343.484 40.901 343.708 41.3594 344.156C41.8281 344.604 42.0625 345.161 42.0625 345.828C42.0625 346.495 41.8281 347.052 41.3594 347.5C40.901 347.948 40.2865 348.172 39.5156 348.172C38.7448 348.172 38.125 347.948 37.6562 347.5C37.1979 347.052 36.9688 346.495 36.9688 345.828Z" fill="white" fill-opacity="0.4"/>
<path d="M36.9688 319.828C36.9688 319.161 37.1979 318.604 37.6562 318.156C38.125 317.708 38.7448 317.484 39.5156 317.484C40.2865 317.484 40.901 317.708 41.3594 318.156C41.8281 318.604 42.0625 319.161 42.0625 319.828C42.0625 320.495 41.8281 321.052 41.3594 321.5C40.901 321.948 40.2865 322.172 39.5156 322.172C38.7448 322.172 38.125 321.948 37.6562 321.5C37.1979 321.052 36.9688 320.495 36.9688 319.828Z" fill="white" fill-opacity="0.45"/>
<path d="M36.9688 293.828C36.9688 293.161 37.1979 292.604 37.6562 292.156C38.125 291.708 38.7448 291.484 39.5156 291.484C40.2865 291.484 40.901 291.708 41.3594 292.156C41.8281 292.604 42.0625 293.161 42.0625 293.828C42.0625 294.495 41.8281 295.052 41.3594 295.5C40.901 295.948 40.2865 296.172 39.5156 296.172C38.7448 296.172 38.125 295.948 37.6562 295.5C37.1979 295.052 36.9688 294.495 36.9688 293.828Z" fill="white" fill-opacity="0.2"/>
<path d="M36.9688 267.828C36.9688 267.161 37.1979 266.604 37.6562 266.156C38.125 265.708 38.7448 265.484 39.5156 265.484C40.2865 265.484 40.901 265.708 41.3594 266.156C41.8281 266.604 42.0625 267.161 42.0625 267.828C42.0625 268.495 41.8281 269.052 41.3594 269.5C40.901 269.948 40.2865 270.172 39.5156 270.172C38.7448 270.172 38.125 269.948 37.6562 269.5C37.1979 269.052 36.9688 268.495 36.9688 267.828Z" fill="white" fill-opacity="0.3"/>
<path d="M36.9688 241.828C36.9688 241.161 37.1979 240.604 37.6562 240.156C38.125 239.708 38.7448 239.484 39.5156 239.484C40.2865 239.484 40.901 239.708 41.3594 240.156C41.8281 240.604 42.0625 241.161 42.0625 241.828C42.0625 242.495 41.8281 243.052 41.3594 243.5C40.901 243.948 40.2865 244.172 39.5156 244.172C38.7448 244.172 38.125 243.948 37.6562 243.5C37.1979 243.052 36.9688 242.495 36.9688 241.828Z" fill="white" fill-opacity="0.06"/>
<path d="M120.969 371.828C120.969 371.161 121.198 370.604 121.656 370.156C122.125 369.708 122.745 369.484 123.516 369.484C124.286 369.484 124.901 369.708 125.359 370.156C125.828 370.604 126.062 371.161 126.062 371.828C126.062 372.495 125.828 373.052 125.359 373.5C124.901 373.948 124.286 374.172 123.516 374.172C122.745 374.172 122.125 373.948 121.656 373.5C121.198 373.052 120.969 372.495 120.969 371.828Z" fill="white"/>
<path d="M120.969 345.828C120.969 345.161 121.198 344.604 121.656 344.156C122.125 343.708 122.745 343.484 123.516 343.484C124.286 343.484 124.901 343.708 125.359 344.156C125.828 344.604 126.062 345.161 126.062 345.828C126.062 346.495 125.828 347.052 125.359 347.5C124.901 347.948 124.286 348.172 123.516 348.172C122.745 348.172 122.125 347.948 121.656 347.5C121.198 347.052 120.969 346.495 120.969 345.828Z" fill="white" fill-opacity="0.6"/>
<path d="M120.969 319.828C120.969 319.161 121.198 318.604 121.656 318.156C122.125 317.708 122.745 317.484 123.516 317.484C124.286 317.484 124.901 317.708 125.359 318.156C125.828 318.604 126.062 319.161 126.062 319.828C126.062 320.495 125.828 321.052 125.359 321.5C124.901 321.948 124.286 322.172 123.516 322.172C122.745 322.172 122.125 321.948 121.656 321.5C121.198 321.052 120.969 320.495 120.969 319.828Z" fill="white" fill-opacity="0.6"/>
<path d="M120.969 293.828C120.969 293.161 121.198 292.604 121.656 292.156C122.125 291.708 122.745 291.484 123.516 291.484C124.286 291.484 124.901 291.708 125.359 292.156C125.828 292.604 126.062 293.161 126.062 293.828C126.062 294.495 125.828 295.052 125.359 295.5C124.901 295.948 124.286 296.172 123.516 296.172C122.745 296.172 122.125 295.948 121.656 295.5C121.198 295.052 120.969 294.495 120.969 293.828Z" fill="white" fill-opacity="0.4"/>
<path d="M120.969 267.828C120.969 267.161 121.198 266.604 121.656 266.156C122.125 265.708 122.745 265.484 123.516 265.484C124.286 265.484 124.901 265.708 125.359 266.156C125.828 266.604 126.062 267.161 126.062 267.828C126.062 268.495 125.828 269.052 125.359 269.5C124.901 269.948 124.286 270.172 123.516 270.172C122.745 270.172 122.125 269.948 121.656 269.5C121.198 269.052 120.969 268.495 120.969 267.828Z" fill="white" fill-opacity="0.3"/>
<path d="M120.969 241.828C120.969 241.161 121.198 240.604 121.656 240.156C122.125 239.708 122.745 239.484 123.516 239.484C124.286 239.484 124.901 239.708 125.359 240.156C125.828 240.604 126.062 241.161 126.062 241.828C126.062 242.495 125.828 243.052 125.359 243.5C124.901 243.948 124.286 244.172 123.516 244.172C122.745 244.172 122.125 243.948 121.656 243.5C121.198 243.052 120.969 242.495 120.969 241.828Z" fill="white" fill-opacity="0.1"/>
<path d="M162.969 371.828C162.969 371.161 163.198 370.604 163.656 370.156C164.125 369.708 164.745 369.484 165.516 369.484C166.286 369.484 166.901 369.708 167.359 370.156C167.828 370.604 168.062 371.161 168.062 371.828C168.062 372.495 167.828 373.052 167.359 373.5C166.901 373.948 166.286 374.172 165.516 374.172C164.745 374.172 164.125 373.948 163.656 373.5C163.198 373.052 162.969 372.495 162.969 371.828Z" fill="white"/>
<path d="M162.969 345.828C162.969 345.161 163.198 344.604 163.656 344.156C164.125 343.708 164.745 343.484 165.516 343.484C166.286 343.484 166.901 343.708 167.359 344.156C167.828 344.604 168.062 345.161 168.062 345.828C168.062 346.495 167.828 347.052 167.359 347.5C166.901 347.948 166.286 348.172 165.516 348.172C164.745 348.172 164.125 347.948 163.656 347.5C163.198 347.052 162.969 346.495 162.969 345.828Z" fill="white" fill-opacity="0.6"/>
<path d="M162.969 319.828C162.969 319.161 163.198 318.604 163.656 318.156C164.125 317.708 164.745 317.484 165.516 317.484C166.286 317.484 166.901 317.708 167.359 318.156C167.828 318.604 168.062 319.161 168.062 319.828C168.062 320.495 167.828 321.052 167.359 321.5C166.901 321.948 166.286 322.172 165.516 322.172C164.745 322.172 164.125 321.948 163.656 321.5C163.198 321.052 162.969 320.495 162.969 319.828Z" fill="white" fill-opacity="0.6"/>
<path d="M162.969 293.828C162.969 293.161 163.198 292.604 163.656 292.156C164.125 291.708 164.745 291.484 165.516 291.484C166.286 291.484 166.901 291.708 167.359 292.156C167.828 292.604 168.062 293.161 168.062 293.828C168.062 294.495 167.828 295.052 167.359 295.5C166.901 295.948 166.286 296.172 165.516 296.172C164.745 296.172 164.125 295.948 163.656 295.5C163.198 295.052 162.969 294.495 162.969 293.828Z" fill="white" fill-opacity="0.4"/>
<path d="M162.969 267.828C162.969 267.161 163.198 266.604 163.656 266.156C164.125 265.708 164.745 265.484 165.516 265.484C166.286 265.484 166.901 265.708 167.359 266.156C167.828 266.604 168.062 267.161 168.062 267.828C168.062 268.495 167.828 269.052 167.359 269.5C166.901 269.948 166.286 270.172 165.516 270.172C164.745 270.172 164.125 269.948 163.656 269.5C163.198 269.052 162.969 268.495 162.969 267.828Z" fill="white" fill-opacity="0.3"/>
<path d="M162.969 241.828C162.969 241.161 163.198 240.604 163.656 240.156C164.125 239.708 164.745 239.484 165.516 239.484C166.286 239.484 166.901 239.708 167.359 240.156C167.828 240.604 168.062 241.161 168.062 241.828C168.062 242.495 167.828 243.052 167.359 243.5C166.901 243.948 166.286 244.172 165.516 244.172C164.745 244.172 164.125 243.948 163.656 243.5C163.198 243.052 162.969 242.495 162.969 241.828Z" fill="white" fill-opacity="0.1"/>
<path d="M204.969 371.828C204.969 371.161 205.198 370.604 205.656 370.156C206.125 369.708 206.745 369.484 207.516 369.484C208.286 369.484 208.901 369.708 209.359 370.156C209.828 370.604 210.062 371.161 210.062 371.828C210.062 372.495 209.828 373.052 209.359 373.5C208.901 373.948 208.286 374.172 207.516 374.172C206.745 374.172 206.125 373.948 205.656 373.5C205.198 373.052 204.969 372.495 204.969 371.828Z" fill="white"/>
<path d="M204.969 345.828C204.969 345.161 205.198 344.604 205.656 344.156C206.125 343.708 206.745 343.484 207.516 343.484C208.286 343.484 208.901 343.708 209.359 344.156C209.828 344.604 210.062 345.161 210.062 345.828C210.062 346.495 209.828 347.052 209.359 347.5C208.901 347.948 208.286 348.172 207.516 348.172C206.745 348.172 206.125 347.948 205.656 347.5C205.198 347.052 204.969 346.495 204.969 345.828Z" fill="white" fill-opacity="0.6"/>
<path d="M204.969 319.828C204.969 319.161 205.198 318.604 205.656 318.156C206.125 317.708 206.745 317.484 207.516 317.484C208.286 317.484 208.901 317.708 209.359 318.156C209.828 318.604 210.062 319.161 210.062 319.828C210.062 320.495 209.828 321.052 209.359 321.5C208.901 321.948 208.286 322.172 207.516 322.172C206.745 322.172 206.125 321.948 205.656 321.5C205.198 321.052 204.969 320.495 204.969 319.828Z" fill="white" fill-opacity="0.6"/>
<path d="M204.969 293.828C204.969 293.161 205.198 292.604 205.656 292.156C206.125 291.708 206.745 291.484 207.516 291.484C208.286 291.484 208.901 291.708 209.359 292.156C209.828 292.604 210.062 293.161 210.062 293.828C210.062 294.495 209.828 295.052 209.359 295.5C208.901 295.948 208.286 296.172 207.516 296.172C206.745 296.172 206.125 295.948 205.656 295.5C205.198 295.052 204.969 294.495 204.969 293.828Z" fill="white" fill-opacity="0.4"/>
<path d="M204.969 267.828C204.969 267.161 205.198 266.604 205.656 266.156C206.125 265.708 206.745 265.484 207.516 265.484C208.286 265.484 208.901 265.708 209.359 266.156C209.828 266.604 210.062 267.161 210.062 267.828C210.062 268.495 209.828 269.052 209.359 269.5C208.901 269.948 208.286 270.172 207.516 270.172C206.745 270.172 206.125 269.948 205.656 269.5C205.198 269.052 204.969 268.495 204.969 267.828Z" fill="white" fill-opacity="0.3"/>
<path d="M204.969 241.828C204.969 241.161 205.198 240.604 205.656 240.156C206.125 239.708 206.745 239.484 207.516 239.484C208.286 239.484 208.901 239.708 209.359 240.156C209.828 240.604 210.062 241.161 210.062 241.828C210.062 242.495 209.828 243.052 209.359 243.5C208.901 243.948 208.286 244.172 207.516 244.172C206.745 244.172 206.125 243.948 205.656 243.5C205.198 243.052 204.969 242.495 204.969 241.828Z" fill="white" fill-opacity="0.1"/>
<path d="M246.969 345.828C246.969 345.161 247.198 344.604 247.656 344.156C248.125 343.708 248.745 343.484 249.516 343.484C250.286 343.484 250.901 343.708 251.359 344.156C251.828 344.604 252.062 345.161 252.062 345.828C252.062 346.495 251.828 347.052 251.359 347.5C250.901 347.948 250.286 348.172 249.516 348.172C248.745 348.172 248.125 347.948 247.656 347.5C247.198 347.052 246.969 346.495 246.969 345.828Z" fill="white" fill-opacity="0.6"/>
<path d="M246.969 319.828C246.969 319.161 247.198 318.604 247.656 318.156C248.125 317.708 248.745 317.484 249.516 317.484C250.286 317.484 250.901 317.708 251.359 318.156C251.828 318.604 252.062 319.161 252.062 319.828C252.062 320.495 251.828 321.052 251.359 321.5C250.901 321.948 250.286 322.172 249.516 322.172C248.745 322.172 248.125 321.948 247.656 321.5C247.198 321.052 246.969 320.495 246.969 319.828Z" fill="white" fill-opacity="0.6"/>
<path d="M246.969 293.828C246.969 293.161 247.198 292.604 247.656 292.156C248.125 291.708 248.745 291.484 249.516 291.484C250.286 291.484 250.901 291.708 251.359 292.156C251.828 292.604 252.062 293.161 252.062 293.828C252.062 294.495 251.828 295.052 251.359 295.5C250.901 295.948 250.286 296.172 249.516 296.172C248.745 296.172 248.125 295.948 247.656 295.5C247.198 295.052 246.969 294.495 246.969 293.828Z" fill="white" fill-opacity="0.4"/>
<path d="M246.969 267.828C246.969 267.161 247.198 266.604 247.656 266.156C248.125 265.708 248.745 265.484 249.516 265.484C250.286 265.484 250.901 265.708 251.359 266.156C251.828 266.604 252.062 267.161 252.062 267.828C252.062 268.495 251.828 269.052 251.359 269.5C250.901 269.948 250.286 270.172 249.516 270.172C248.745 270.172 248.125 269.948 247.656 269.5C247.198 269.052 246.969 268.495 246.969 267.828Z" fill="white" fill-opacity="0.3"/>
<path d="M246.969 241.828C246.969 241.161 247.198 240.604 247.656 240.156C248.125 239.708 248.745 239.484 249.516 239.484C250.286 239.484 250.901 239.708 251.359 240.156C251.828 240.604 252.062 241.161 252.062 241.828C252.062 242.495 251.828 243.052 251.359 243.5C250.901 243.948 250.286 244.172 249.516 244.172C248.745 244.172 248.125 243.948 247.656 243.5C247.198 243.052 246.969 242.495 246.969 241.828Z" fill="white" fill-opacity="0.1"/>
<path d="M288.969 371.828C288.969 371.161 289.198 370.604 289.656 370.156C290.125 369.708 290.745 369.484 291.516 369.484C292.286 369.484 292.901 369.708 293.359 370.156C293.828 370.604 294.062 371.161 294.062 371.828C294.062 372.495 293.828 373.052 293.359 373.5C292.901 373.948 292.286 374.172 291.516 374.172C290.745 374.172 290.125 373.948 289.656 373.5C289.198 373.052 288.969 372.495 288.969 371.828Z" fill="white"/>
<path d="M288.969 345.828C288.969 345.161 289.198 344.604 289.656 344.156C290.125 343.708 290.745 343.484 291.516 343.484C292.286 343.484 292.901 343.708 293.359 344.156C293.828 344.604 294.062 345.161 294.062 345.828C294.062 346.495 293.828 347.052 293.359 347.5C292.901 347.948 292.286 348.172 291.516 348.172C290.745 348.172 290.125 347.948 289.656 347.5C289.198 347.052 288.969 346.495 288.969 345.828Z" fill="white" fill-opacity="0.6"/>
<path d="M288.969 319.828C288.969 319.161 289.198 318.604 289.656 318.156C290.125 317.708 290.745 317.484 291.516 317.484C292.286 317.484 292.901 317.708 293.359 318.156C293.828 318.604 294.062 319.161 294.062 319.828C294.062 320.495 293.828 321.052 293.359 321.5C292.901 321.948 292.286 322.172 291.516 322.172C290.745 322.172 290.125 321.948 289.656 321.5C289.198 321.052 288.969 320.495 288.969 319.828Z" fill="white" fill-opacity="0.6"/>
<path d="M288.969 293.828C288.969 293.161 289.198 292.604 289.656 292.156C290.125 291.708 290.745 291.484 291.516 291.484C292.286 291.484 292.901 291.708 293.359 292.156C293.828 292.604 294.062 293.161 294.062 293.828C294.062 294.495 293.828 295.052 293.359 295.5C292.901 295.948 292.286 296.172 291.516 296.172C290.745 296.172 290.125 295.948 289.656 295.5C289.198 295.052 288.969 294.495 288.969 293.828Z" fill="white" fill-opacity="0.4"/>
<path d="M288.969 267.828C288.969 267.161 289.198 266.604 289.656 266.156C290.125 265.708 290.745 265.484 291.516 265.484C292.286 265.484 292.901 265.708 293.359 266.156C293.828 266.604 294.062 267.161 294.062 267.828C294.062 268.495 293.828 269.052 293.359 269.5C292.901 269.948 292.286 270.172 291.516 270.172C290.745 270.172 290.125 269.948 289.656 269.5C289.198 269.052 288.969 268.495 288.969 267.828Z" fill="white" fill-opacity="0.3"/>
<path d="M288.969 241.828C288.969 241.161 289.198 240.604 289.656 240.156C290.125 239.708 290.745 239.484 291.516 239.484C292.286 239.484 292.901 239.708 293.359 240.156C293.828 240.604 294.062 241.161 294.062 241.828C294.062 242.495 293.828 243.052 293.359 243.5C292.901 243.948 292.286 244.172 291.516 244.172C290.745 244.172 290.125 243.948 289.656 243.5C289.198 243.052 288.969 242.495 288.969 241.828Z" fill="white" fill-opacity="0.1"/>
<path d="M330.969 371.828C330.969 371.161 331.198 370.604 331.656 370.156C332.125 369.708 332.745 369.484 333.516 369.484C334.286 369.484 334.901 369.708 335.359 370.156C335.828 370.604 336.062 371.161 336.062 371.828C336.062 372.495 335.828 373.052 335.359 373.5C334.901 373.948 334.286 374.172 333.516 374.172C332.745 374.172 332.125 373.948 331.656 373.5C331.198 373.052 330.969 372.495 330.969 371.828Z" fill="white"/>
<path d="M330.969 345.828C330.969 345.161 331.198 344.604 331.656 344.156C332.125 343.708 332.745 343.484 333.516 343.484C334.286 343.484 334.901 343.708 335.359 344.156C335.828 344.604 336.062 345.161 336.062 345.828C336.062 346.495 335.828 347.052 335.359 347.5C334.901 347.948 334.286 348.172 333.516 348.172C332.745 348.172 332.125 347.948 331.656 347.5C331.198 347.052 330.969 346.495 330.969 345.828Z" fill="white" fill-opacity="0.6"/>
<path d="M330.969 319.828C330.969 319.161 331.198 318.604 331.656 318.156C332.125 317.708 332.745 317.484 333.516 317.484C334.286 317.484 334.901 317.708 335.359 318.156C335.828 318.604 336.062 319.161 336.062 319.828C336.062 320.495 335.828 321.052 335.359 321.5C334.901 321.948 334.286 322.172 333.516 322.172C332.745 322.172 332.125 321.948 331.656 321.5C331.198 321.052 330.969 320.495 330.969 319.828Z" fill="white" fill-opacity="0.6"/>
<path d="M330.969 293.828C330.969 293.161 331.198 292.604 331.656 292.156C332.125 291.708 332.745 291.484 333.516 291.484C334.286 291.484 334.901 291.708 335.359 292.156C335.828 292.604 336.062 293.161 336.062 293.828C336.062 294.495 335.828 295.052 335.359 295.5C334.901 295.948 334.286 296.172 333.516 296.172C332.745 296.172 332.125 295.948 331.656 295.5C331.198 295.052 330.969 294.495 330.969 293.828Z" fill="white" fill-opacity="0.4"/>
<path d="M330.969 267.828C330.969 267.161 331.198 266.604 331.656 266.156C332.125 265.708 332.745 265.484 333.516 265.484C334.286 265.484 334.901 265.708 335.359 266.156C335.828 266.604 336.062 267.161 336.062 267.828C336.062 268.495 335.828 269.052 335.359 269.5C334.901 269.948 334.286 270.172 333.516 270.172C332.745 270.172 332.125 269.948 331.656 269.5C331.198 269.052 330.969 268.495 330.969 267.828Z" fill="white" fill-opacity="0.3"/>
<path d="M330.969 241.828C330.969 241.161 331.198 240.604 331.656 240.156C332.125 239.708 332.745 239.484 333.516 239.484C334.286 239.484 334.901 239.708 335.359 240.156C335.828 240.604 336.062 241.161 336.062 241.828C336.062 242.495 335.828 243.052 335.359 243.5C334.901 243.948 334.286 244.172 333.516 244.172C332.745 244.172 332.125 243.948 331.656 243.5C331.198 243.052 330.969 242.495 330.969 241.828Z" fill="white" fill-opacity="0.1"/>
<path d="M372.969 371.828C372.969 371.161 373.198 370.604 373.656 370.156C374.125 369.708 374.745 369.484 375.516 369.484C376.286 369.484 376.901 369.708 377.359 370.156C377.828 370.604 378.062 371.161 378.062 371.828C378.062 372.495 377.828 373.052 377.359 373.5C376.901 373.948 376.286 374.172 375.516 374.172C374.745 374.172 374.125 373.948 373.656 373.5C373.198 373.052 372.969 372.495 372.969 371.828Z" fill="white"/>
<path d="M372.969 345.828C372.969 345.161 373.198 344.604 373.656 344.156C374.125 343.708 374.745 343.484 375.516 343.484C376.286 343.484 376.901 343.708 377.359 344.156C377.828 344.604 378.062 345.161 378.062 345.828C378.062 346.495 377.828 347.052 377.359 347.5C376.901 347.948 376.286 348.172 375.516 348.172C374.745 348.172 374.125 347.948 373.656 347.5C373.198 347.052 372.969 346.495 372.969 345.828Z" fill="white" fill-opacity="0.6"/>
<path d="M372.969 319.828C372.969 319.161 373.198 318.604 373.656 318.156C374.125 317.708 374.745 317.484 375.516 317.484C376.286 317.484 376.901 317.708 377.359 318.156C377.828 318.604 378.062 319.161 378.062 319.828C378.062 320.495 377.828 321.052 377.359 321.5C376.901 321.948 376.286 322.172 375.516 322.172C374.745 322.172 374.125 321.948 373.656 321.5C373.198 321.052 372.969 320.495 372.969 319.828Z" fill="white" fill-opacity="0.6"/>
<path d="M372.969 293.828C372.969 293.161 373.198 292.604 373.656 292.156C374.125 291.708 374.745 291.484 375.516 291.484C376.286 291.484 376.901 291.708 377.359 292.156C377.828 292.604 378.062 293.161 378.062 293.828C378.062 294.495 377.828 295.052 377.359 295.5C376.901 295.948 376.286 296.172 375.516 296.172C374.745 296.172 374.125 295.948 373.656 295.5C373.198 295.052 372.969 294.495 372.969 293.828Z" fill="white" fill-opacity="0.4"/>
<path d="M372.969 267.828C372.969 267.161 373.198 266.604 373.656 266.156C374.125 265.708 374.745 265.484 375.516 265.484C376.286 265.484 376.901 265.708 377.359 266.156C377.828 266.604 378.062 267.161 378.062 267.828C378.062 268.495 377.828 269.052 377.359 269.5C376.901 269.948 376.286 270.172 375.516 270.172C374.745 270.172 374.125 269.948 373.656 269.5C373.198 269.052 372.969 268.495 372.969 267.828Z" fill="white" fill-opacity="0.3"/>
<path d="M372.969 241.828C372.969 241.161 373.198 240.604 373.656 240.156C374.125 239.708 374.745 239.484 375.516 239.484C376.286 239.484 376.901 239.708 377.359 240.156C377.828 240.604 378.062 241.161 378.062 241.828C378.062 242.495 377.828 243.052 377.359 243.5C376.901 243.948 376.286 244.172 375.516 244.172C374.745 244.172 374.125 243.948 373.656 243.5C373.198 243.052 372.969 242.495 372.969 241.828Z" fill="white" fill-opacity="0.1"/>
<path d="M414.969 371.828C414.969 371.161 415.198 370.604 415.656 370.156C416.125 369.708 416.745 369.484 417.516 369.484C418.286 369.484 418.901 369.708 419.359 370.156C419.828 370.604 420.062 371.161 420.062 371.828C420.062 372.495 419.828 373.052 419.359 373.5C418.901 373.948 418.286 374.172 417.516 374.172C416.745 374.172 416.125 373.948 415.656 373.5C415.198 373.052 414.969 372.495 414.969 371.828Z" fill="white"/>
<path d="M414.969 345.828C414.969 345.161 415.198 344.604 415.656 344.156C416.125 343.708 416.745 343.484 417.516 343.484C418.286 343.484 418.901 343.708 419.359 344.156C419.828 344.604 420.062 345.161 420.062 345.828C420.062 346.495 419.828 347.052 419.359 347.5C418.901 347.948 418.286 348.172 417.516 348.172C416.745 348.172 416.125 347.948 415.656 347.5C415.198 347.052 414.969 346.495 414.969 345.828Z" fill="white" fill-opacity="0.6"/>
<path d="M414.969 319.828C414.969 319.161 415.198 318.604 415.656 318.156C416.125 317.708 416.745 317.484 417.516 317.484C418.286 317.484 418.901 317.708 419.359 318.156C419.828 318.604 420.062 319.161 420.062 319.828C420.062 320.495 419.828 321.052 419.359 321.5C418.901 321.948 418.286 322.172 417.516 322.172C416.745 322.172 416.125 321.948 415.656 321.5C415.198 321.052 414.969 320.495 414.969 319.828Z" fill="white" fill-opacity="0.6"/>
<path d="M414.969 293.828C414.969 293.161 415.198 292.604 415.656 292.156C416.125 291.708 416.745 291.484 417.516 291.484C418.286 291.484 418.901 291.708 419.359 292.156C419.828 292.604 420.062 293.161 420.062 293.828C420.062 294.495 419.828 295.052 419.359 295.5C418.901 295.948 418.286 296.172 417.516 296.172C416.745 296.172 416.125 295.948 415.656 295.5C415.198 295.052 414.969 294.495 414.969 293.828Z" fill="white" fill-opacity="0.4"/>
<path d="M414.969 267.828C414.969 267.161 415.198 266.604 415.656 266.156C416.125 265.708 416.745 265.484 417.516 265.484C418.286 265.484 418.901 265.708 419.359 266.156C419.828 266.604 420.062 267.161 420.062 267.828C420.062 268.495 419.828 269.052 419.359 269.5C418.901 269.948 418.286 270.172 417.516 270.172C416.745 270.172 416.125 269.948 415.656 269.5C415.198 269.052 414.969 268.495 414.969 267.828Z" fill="white" fill-opacity="0.3"/>
<path d="M414.969 241.828C414.969 241.161 415.198 240.604 415.656 240.156C416.125 239.708 416.745 239.484 417.516 239.484C418.286 239.484 418.901 239.708 419.359 240.156C419.828 240.604 420.062 241.161 420.062 241.828C420.062 242.495 419.828 243.052 419.359 243.5C418.901 243.948 418.286 244.172 417.516 244.172C416.745 244.172 416.125 243.948 415.656 243.5C415.198 243.052 414.969 242.495 414.969 241.828Z" fill="white" fill-opacity="0.1"/>
<path d="M456.969 371.828C456.969 371.161 457.198 370.604 457.656 370.156C458.125 369.708 458.745 369.484 459.516 369.484C460.286 369.484 460.901 369.708 461.359 370.156C461.828 370.604 462.062 371.161 462.062 371.828C462.062 372.495 461.828 373.052 461.359 373.5C460.901 373.948 460.286 374.172 459.516 374.172C458.745 374.172 458.125 373.948 457.656 373.5C457.198 373.052 456.969 372.495 456.969 371.828Z" fill="white"/>
<path d="M456.969 345.828C456.969 345.161 457.198 344.604 457.656 344.156C458.125 343.708 458.745 343.484 459.516 343.484C460.286 343.484 460.901 343.708 461.359 344.156C461.828 344.604 462.062 345.161 462.062 345.828C462.062 346.495 461.828 347.052 461.359 347.5C460.901 347.948 460.286 348.172 459.516 348.172C458.745 348.172 458.125 347.948 457.656 347.5C457.198 347.052 456.969 346.495 456.969 345.828Z" fill="white" fill-opacity="0.6"/>
<path d="M456.969 319.828C456.969 319.161 457.198 318.604 457.656 318.156C458.125 317.708 458.745 317.484 459.516 317.484C460.286 317.484 460.901 317.708 461.359 318.156C461.828 318.604 462.062 319.161 462.062 319.828C462.062 320.495 461.828 321.052 461.359 321.5C460.901 321.948 460.286 322.172 459.516 322.172C458.745 322.172 458.125 321.948 457.656 321.5C457.198 321.052 456.969 320.495 456.969 319.828Z" fill="white" fill-opacity="0.6"/>
<path d="M456.969 293.828C456.969 293.161 457.198 292.604 457.656 292.156C458.125 291.708 458.745 291.484 459.516 291.484C460.286 291.484 460.901 291.708 461.359 292.156C461.828 292.604 462.062 293.161 462.062 293.828C462.062 294.495 461.828 295.052 461.359 295.5C460.901 295.948 460.286 296.172 459.516 296.172C458.745 296.172 458.125 295.948 457.656 295.5C457.198 295.052 456.969 294.495 456.969 293.828Z" fill="white" fill-opacity="0.4"/>
<path d="M456.969 267.828C456.969 267.161 457.198 266.604 457.656 266.156C458.125 265.708 458.745 265.484 459.516 265.484C460.286 265.484 460.901 265.708 461.359 266.156C461.828 266.604 462.062 267.161 462.062 267.828C462.062 268.495 461.828 269.052 461.359 269.5C460.901 269.948 460.286 270.172 459.516 270.172C458.745 270.172 458.125 269.948 457.656 269.5C457.198 269.052 456.969 268.495 456.969 267.828Z" fill="white" fill-opacity="0.3"/>
<path d="M456.969 241.828C456.969 241.161 457.198 240.604 457.656 240.156C458.125 239.708 458.745 239.484 459.516 239.484C460.286 239.484 460.901 239.708 461.359 240.156C461.828 240.604 462.062 241.161 462.062 241.828C462.062 242.495 461.828 243.052 461.359 243.5C460.901 243.948 460.286 244.172 459.516 244.172C458.745 244.172 458.125 243.948 457.656 243.5C457.198 243.052 456.969 242.495 456.969 241.828Z" fill="white" fill-opacity="0.1"/>
<path d="M498.969 371.828C498.969 371.161 499.198 370.604 499.656 370.156C500.125 369.708 500.745 369.484 501.516 369.484C502.286 369.484 502.901 369.708 503.359 370.156C503.828 370.604 504.062 371.161 504.062 371.828C504.062 372.495 503.828 373.052 503.359 373.5C502.901 373.948 502.286 374.172 501.516 374.172C500.745 374.172 500.125 373.948 499.656 373.5C499.198 373.052 498.969 372.495 498.969 371.828Z" fill="white"/>
<path d="M498.969 345.828C498.969 345.161 499.198 344.604 499.656 344.156C500.125 343.708 500.745 343.484 501.516 343.484C502.286 343.484 502.901 343.708 503.359 344.156C503.828 344.604 504.062 345.161 504.062 345.828C504.062 346.495 503.828 347.052 503.359 347.5C502.901 347.948 502.286 348.172 501.516 348.172C500.745 348.172 500.125 347.948 499.656 347.5C499.198 347.052 498.969 346.495 498.969 345.828Z" fill="white" fill-opacity="0.6"/>
<path d="M498.969 319.828C498.969 319.161 499.198 318.604 499.656 318.156C500.125 317.708 500.745 317.484 501.516 317.484C502.286 317.484 502.901 317.708 503.359 318.156C503.828 318.604 504.062 319.161 504.062 319.828C504.062 320.495 503.828 321.052 503.359 321.5C502.901 321.948 502.286 322.172 501.516 322.172C500.745 322.172 500.125 321.948 499.656 321.5C499.198 321.052 498.969 320.495 498.969 319.828Z" fill="white" fill-opacity="0.6"/>
<path d="M498.969 293.828C498.969 293.161 499.198 292.604 499.656 292.156C500.125 291.708 500.745 291.484 501.516 291.484C502.286 291.484 502.901 291.708 503.359 292.156C503.828 292.604 504.062 293.161 504.062 293.828C504.062 294.495 503.828 295.052 503.359 295.5C502.901 295.948 502.286 296.172 501.516 296.172C500.745 296.172 500.125 295.948 499.656 295.5C499.198 295.052 498.969 294.495 498.969 293.828Z" fill="white" fill-opacity="0.4"/>
<path d="M498.969 267.828C498.969 267.161 499.198 266.604 499.656 266.156C500.125 265.708 500.745 265.484 501.516 265.484C502.286 265.484 502.901 265.708 503.359 266.156C503.828 266.604 504.062 267.161 504.062 267.828C504.062 268.495 503.828 269.052 503.359 269.5C502.901 269.948 502.286 270.172 501.516 270.172C500.745 270.172 500.125 269.948 499.656 269.5C499.198 269.052 498.969 268.495 498.969 267.828Z" fill="white" fill-opacity="0.3"/>
<path d="M498.969 241.828C498.969 241.161 499.198 240.604 499.656 240.156C500.125 239.708 500.745 239.484 501.516 239.484C502.286 239.484 502.901 239.708 503.359 240.156C503.828 240.604 504.062 241.161 504.062 241.828C504.062 242.495 503.828 243.052 503.359 243.5C502.901 243.948 502.286 244.172 501.516 244.172C500.745 244.172 500.125 243.948 499.656 243.5C499.198 243.052 498.969 242.495 498.969 241.828Z" fill="white" fill-opacity="0.1"/>
<path d="M540.969 371.828C540.969 371.161 541.198 370.604 541.656 370.156C542.125 369.708 542.745 369.484 543.516 369.484C544.286 369.484 544.901 369.708 545.359 370.156C545.828 370.604 546.062 371.161 546.062 371.828C546.062 372.495 545.828 373.052 545.359 373.5C544.901 373.948 544.286 374.172 543.516 374.172C542.745 374.172 542.125 373.948 541.656 373.5C541.198 373.052 540.969 372.495 540.969 371.828Z" fill="white"/>
<path d="M540.969 345.828C540.969 345.161 541.198 344.604 541.656 344.156C542.125 343.708 542.745 343.484 543.516 343.484C544.286 343.484 544.901 343.708 545.359 344.156C545.828 344.604 546.062 345.161 546.062 345.828C546.062 346.495 545.828 347.052 545.359 347.5C544.901 347.948 544.286 348.172 543.516 348.172C542.745 348.172 542.125 347.948 541.656 347.5C541.198 347.052 540.969 346.495 540.969 345.828Z" fill="white" fill-opacity="0.6"/>
<path d="M540.969 319.828C540.969 319.161 541.198 318.604 541.656 318.156C542.125 317.708 542.745 317.484 543.516 317.484C544.286 317.484 544.901 317.708 545.359 318.156C545.828 318.604 546.062 319.161 546.062 319.828C546.062 320.495 545.828 321.052 545.359 321.5C544.901 321.948 544.286 322.172 543.516 322.172C542.745 322.172 542.125 321.948 541.656 321.5C541.198 321.052 540.969 320.495 540.969 319.828Z" fill="white" fill-opacity="0.6"/>
<path d="M540.969 293.828C540.969 293.161 541.198 292.604 541.656 292.156C542.125 291.708 542.745 291.484 543.516 291.484C544.286 291.484 544.901 291.708 545.359 292.156C545.828 292.604 546.062 293.161 546.062 293.828C546.062 294.495 545.828 295.052 545.359 295.5C544.901 295.948 544.286 296.172 543.516 296.172C542.745 296.172 542.125 295.948 541.656 295.5C541.198 295.052 540.969 294.495 540.969 293.828Z" fill="white" fill-opacity="0.4"/>
<path d="M540.969 267.828C540.969 267.161 541.198 266.604 541.656 266.156C542.125 265.708 542.745 265.484 543.516 265.484C544.286 265.484 544.901 265.708 545.359 266.156C545.828 266.604 546.062 267.161 546.062 267.828C546.062 268.495 545.828 269.052 545.359 269.5C544.901 269.948 544.286 270.172 543.516 270.172C542.745 270.172 542.125 269.948 541.656 269.5C541.198 269.052 540.969 268.495 540.969 267.828Z" fill="white" fill-opacity="0.3"/>
<path d="M540.969 241.828C540.969 241.161 541.198 240.604 541.656 240.156C542.125 239.708 542.745 239.484 543.516 239.484C544.286 239.484 544.901 239.708 545.359 240.156C545.828 240.604 546.062 241.161 546.062 241.828C546.062 242.495 545.828 243.052 545.359 243.5C544.901 243.948 544.286 244.172 543.516 244.172C542.745 244.172 542.125 243.948 541.656 243.5C541.198 243.052 540.969 242.495 540.969 241.828Z" fill="white" fill-opacity="0.1"/>
<path d="M582.969 371.828C582.969 371.161 583.198 370.604 583.656 370.156C584.125 369.708 584.745 369.484 585.516 369.484C586.286 369.484 586.901 369.708 587.359 370.156C587.828 370.604 588.062 371.161 588.062 371.828C588.062 372.495 587.828 373.052 587.359 373.5C586.901 373.948 586.286 374.172 585.516 374.172C584.745 374.172 584.125 373.948 583.656 373.5C583.198 373.052 582.969 372.495 582.969 371.828Z" fill="white"/>
<path d="M582.969 345.828C582.969 345.161 583.198 344.604 583.656 344.156C584.125 343.708 584.745 343.484 585.516 343.484C586.286 343.484 586.901 343.708 587.359 344.156C587.828 344.604 588.062 345.161 588.062 345.828C588.062 346.495 587.828 347.052 587.359 347.5C586.901 347.948 586.286 348.172 585.516 348.172C584.745 348.172 584.125 347.948 583.656 347.5C583.198 347.052 582.969 346.495 582.969 345.828Z" fill="white" fill-opacity="0.6"/>
<path d="M582.969 319.828C582.969 319.161 583.198 318.604 583.656 318.156C584.125 317.708 584.745 317.484 585.516 317.484C586.286 317.484 586.901 317.708 587.359 318.156C587.828 318.604 588.062 319.161 588.062 319.828C588.062 320.495 587.828 321.052 587.359 321.5C586.901 321.948 586.286 322.172 585.516 322.172C584.745 322.172 584.125 321.948 583.656 321.5C583.198 321.052 582.969 320.495 582.969 319.828Z" fill="white" fill-opacity="0.6"/>
<path d="M582.969 293.828C582.969 293.161 583.198 292.604 583.656 292.156C584.125 291.708 584.745 291.484 585.516 291.484C586.286 291.484 586.901 291.708 587.359 292.156C587.828 292.604 588.062 293.161 588.062 293.828C588.062 294.495 587.828 295.052 587.359 295.5C586.901 295.948 586.286 296.172 585.516 296.172C584.745 296.172 584.125 295.948 583.656 295.5C583.198 295.052 582.969 294.495 582.969 293.828Z" fill="white" fill-opacity="0.4"/>
<path d="M582.969 267.828C582.969 267.161 583.198 266.604 583.656 266.156C584.125 265.708 584.745 265.484 585.516 265.484C586.286 265.484 586.901 265.708 587.359 266.156C587.828 266.604 588.062 267.161 588.062 267.828C588.062 268.495 587.828 269.052 587.359 269.5C586.901 269.948 586.286 270.172 585.516 270.172C584.745 270.172 584.125 269.948 583.656 269.5C583.198 269.052 582.969 268.495 582.969 267.828Z" fill="white" fill-opacity="0.3"/>
<path d="M582.969 241.828C582.969 241.161 583.198 240.604 583.656 240.156C584.125 239.708 584.745 239.484 585.516 239.484C586.286 239.484 586.901 239.708 587.359 240.156C587.828 240.604 588.062 241.161 588.062 241.828C588.062 242.495 587.828 243.052 587.359 243.5C586.901 243.948 586.286 244.172 585.516 244.172C584.745 244.172 584.125 243.948 583.656 243.5C583.198 243.052 582.969 242.495 582.969 241.828Z" fill="white" fill-opacity="0.1"/>
<path d="M624.969 371.828C624.969 371.161 625.198 370.604 625.656 370.156C626.125 369.708 626.745 369.484 627.516 369.484C628.286 369.484 628.901 369.708 629.359 370.156C629.828 370.604 630.062 371.161 630.062 371.828C630.062 372.495 629.828 373.052 629.359 373.5C628.901 373.948 628.286 374.172 627.516 374.172C626.745 374.172 626.125 373.948 625.656 373.5C625.198 373.052 624.969 372.495 624.969 371.828Z" fill="white"/>
<path d="M624.969 345.828C624.969 345.161 625.198 344.604 625.656 344.156C626.125 343.708 626.745 343.484 627.516 343.484C628.286 343.484 628.901 343.708 629.359 344.156C629.828 344.604 630.062 345.161 630.062 345.828C630.062 346.495 629.828 347.052 629.359 347.5C628.901 347.948 628.286 348.172 627.516 348.172C626.745 348.172 626.125 347.948 625.656 347.5C625.198 347.052 624.969 346.495 624.969 345.828Z" fill="white" fill-opacity="0.6"/>
<path d="M624.969 319.828C624.969 319.161 625.198 318.604 625.656 318.156C626.125 317.708 626.745 317.484 627.516 317.484C628.286 317.484 628.901 317.708 629.359 318.156C629.828 318.604 630.062 319.161 630.062 319.828C630.062 320.495 629.828 321.052 629.359 321.5C628.901 321.948 628.286 322.172 627.516 322.172C626.745 322.172 626.125 321.948 625.656 321.5C625.198 321.052 624.969 320.495 624.969 319.828Z" fill="white" fill-opacity="0.6"/>
<path d="M624.969 293.828C624.969 293.161 625.198 292.604 625.656 292.156C626.125 291.708 626.745 291.484 627.516 291.484C628.286 291.484 628.901 291.708 629.359 292.156C629.828 292.604 630.062 293.161 630.062 293.828C630.062 294.495 629.828 295.052 629.359 295.5C628.901 295.948 628.286 296.172 627.516 296.172C626.745 296.172 626.125 295.948 625.656 295.5C625.198 295.052 624.969 294.495 624.969 293.828Z" fill="white" fill-opacity="0.4"/>
<path d="M624.969 267.828C624.969 267.161 625.198 266.604 625.656 266.156C626.125 265.708 626.745 265.484 627.516 265.484C628.286 265.484 628.901 265.708 629.359 266.156C629.828 266.604 630.062 267.161 630.062 267.828C630.062 268.495 629.828 269.052 629.359 269.5C628.901 269.948 628.286 270.172 627.516 270.172C626.745 270.172 626.125 269.948 625.656 269.5C625.198 269.052 624.969 268.495 624.969 267.828Z" fill="white" fill-opacity="0.3"/>
<path d="M624.969 241.828C624.969 241.161 625.198 240.604 625.656 240.156C626.125 239.708 626.745 239.484 627.516 239.484C628.286 239.484 628.901 239.708 629.359 240.156C629.828 240.604 630.062 241.161 630.062 241.828C630.062 242.495 629.828 243.052 629.359 243.5C628.901 243.948 628.286 244.172 627.516 244.172C626.745 244.172 626.125 243.948 625.656 243.5C625.198 243.052 624.969 242.495 624.969 241.828Z" fill="white" fill-opacity="0.1"/>
</svg>
