<svg width="657" height="389" viewBox="0 0 657 389" fill="none" xmlns="http://www.w3.org/2000/svg">
<rect width="657" height="388.5" rx="30" fill="#232842"/>
<g clip-path="url(#clip0_94_50)">
<path d="M32.5555 279.064C13.7256 277 5.00854 283.015 0 286V389H657V194C650.77 205.848 598.891 236 597.522 236C596.154 236 590.888 235.249 590.202 234.5C586.542 230.5 562.751 239 562.76 239.765C562.769 240.531 522.815 246.442 507.354 250.212C502.763 245.071 492.417 234.531 480.397 240.5C465.371 247.962 436.571 254.485 432.815 251.5C429.058 248.515 418.693 237.278 402.416 243.247L402.077 243.372C385.827 249.331 363.553 257.5 348.631 257.5C333.605 257.5 324.117 248.48 316.604 244.5C309.092 240.52 300.088 251.207 293.827 254.191C287.567 257.176 287.756 257.487 282.748 255C277.739 252.513 262.135 255.51 257.127 257.5C252.118 259.49 253.474 263.35 230.591 267.5C200.908 272.883 200.934 253.811 195.819 253C188.515 251.842 168.666 260.658 152.389 265.633C136.111 270.607 135.715 271.005 124.446 272C113.176 272.995 102.099 266.995 93.3343 266C84.5693 265.005 79.5602 271.036 69.5432 278C59.5261 284.964 49.9504 280.97 32.5555 279.064Z" fill="url(#paint0_linear_94_50)"/>
<path d="M1 285C6.02785 281.879 15.8322 276.468 29.9101 277.717C47.5076 279.277 57.5633 285 67.619 277.717C77.6747 270.434 85.2164 264.191 94.0152 265.231C102.814 266.272 109.099 271.994 120.411 270.954C131.724 269.913 100.205 281.548 150.578 265.231C200.952 248.915 195.467 251.402 198.343 256.908C201.887 263.694 212.17 273.555 233.538 267.312C254.906 261.069 255.409 254.306 269.99 254.306C284.571 254.306 276.275 251.705 281.302 254.306C286.33 256.908 288.844 255.867 295.129 252.746C301.414 249.624 310.427 240.26 317.969 244.422C325.51 248.584 331.581 256.908 346.664 256.908C361.748 256.908 386.084 248.584 402.424 242.341C418.765 236.098 428.367 248.064 432.138 251.185C435.909 254.306 463.562 248.064 478.645 240.26C490.712 234.017 502.947 243.208 507.556 248.584C523.896 246.329 559.845 240.468 572.918 235.058C585.99 229.647 593.448 234.538 595.543 237.659C607.275 234.017 649.215 208.026 655.5 194.5" stroke="url(#paint1_linear_94_50)" stroke-width="3" stroke-linecap="round" stroke-linejoin="round"/>
</g>
<defs>
<linearGradient id="paint0_linear_94_50" x1="320.546" y1="217.38" x2="320.546" y2="323.337" gradientUnits="userSpaceOnUse">
<stop stop-color="#78D369" stop-opacity="0.16"/>
<stop offset="1" stop-color="white" stop-opacity="0"/>
</linearGradient>
<linearGradient id="paint1_linear_94_50" x1="656.421" y1="194" x2="75.4163" y2="462.137" gradientUnits="userSpaceOnUse">
<stop stop-color="#00FAFF"/>
<stop offset="1" stop-color="#FFE600"/>
</linearGradient>
<clipPath id="clip0_94_50">
<rect width="657" height="194.5" fill="white" transform="translate(0 194)"/>
</clipPath>
</defs>
</svg>
