<svg width="32" height="35" viewBox="0 0 32 35" fill="none" xmlns="http://www.w3.org/2000/svg">
<g clip-path="url(#clip0_1_288)">
<path d="M16.2423 0.88916C7.32075 0.88916 0.856079 8.16767 0.856079 16.2447C0.856079 18.8244 1.6085 21.4809 2.92907 23.9071C3.17476 24.3063 3.20547 24.813 3.03656 25.2891L2.00774 28.7287C1.77741 29.5579 2.48376 30.1721 3.26689 29.9264L6.3687 29.0051C7.21326 28.7287 7.87354 29.0819 8.65821 29.5579C10.9001 30.8785 13.6933 31.5541 16.2116 31.5541C23.8279 31.5541 31.5671 25.6729 31.5671 16.1986C31.5671 8.02947 24.9642 0.88916 16.2423 0.88916Z" fill="white"/>
<path fill-rule="evenodd" clip-rule="evenodd" d="M9.1021 18.2256C8.02722 18.2256 7.1366 17.335 7.1366 16.2601C7.1366 15.1699 8.01186 14.2946 9.1021 14.2946C10.1923 14.2946 11.0676 15.1699 11.0676 16.2601C11.0676 17.335 10.1923 18.2102 9.1021 18.2256ZM16.1815 18.2258C15.0913 18.2105 14.216 17.3352 14.216 16.245C14.216 15.1701 15.1066 14.2795 16.1815 14.2948C17.2718 14.2948 18.147 15.1701 18.147 16.2603C18.147 17.3352 17.2718 18.2258 16.1815 18.2258ZM21.2947 16.2605C21.2947 17.3354 22.1699 18.226 23.2602 18.226C24.3504 18.226 25.2257 17.3354 25.2257 16.2605C25.2257 15.1703 24.3504 14.295 23.2602 14.295C22.1699 14.295 21.2947 15.1703 21.2947 16.2605Z" fill="#0328EE"/>
</g>
<defs>
<clipPath id="clip0_1_288">
<rect width="32" height="32" fill="white"/>
</clipPath>
</defs>
</svg>
