<svg width="42" height="41" viewBox="0 0 42 41" fill="none" xmlns="http://www.w3.org/2000/svg">
<g opacity="0.84992" clip-path="url(#clip0_1_257)">
<path opacity="0.4" d="M2.7513 8.51221H26.5485C27.6494 8.51221 28.5429 9.4052 28.5429 10.5055C28.5429 11.6057 27.6494 12.4988 26.5485 12.4988H2.7513C1.65039 12.4988 0.756897 11.6057 0.756897 10.5055C0.756897 9.4052 1.65039 8.51221 2.7513 8.51221Z" fill="white"/>
<mask id="mask0_1_257" style="mask-type:alpha" maskUnits="userSpaceOnUse" x="24" y="0" width="18" height="22">
<path fill-rule="evenodd" clip-rule="evenodd" d="M24.4186 21.4653V0H41.5797V21.4653H24.4186Z" fill="white"/>
</mask>
<g mask="url(#mask0_1_257)">
<path d="M25.7655 0.18335C26.0169 0.18335 26.2647 0.253348 26.4838 0.389759L40.7361 9.36596C41.1275 9.61365 41.3665 10.0427 41.3665 10.5057C41.3665 10.9688 41.1275 11.3978 40.7361 11.6455L26.4838 20.6216C26.069 20.8819 25.5446 20.8981 25.1154 20.6593C24.6844 20.4224 24.4186 19.9719 24.4186 19.4819V1.52951C24.4186 1.0395 24.6844 0.588992 25.1154 0.352068C25.3183 0.23899 25.5428 0.18335 25.7655 0.18335Z" fill="white"/>
</g>
<path opacity="0.4" d="M39.3188 32.0591H15.5216C14.4206 32.0591 13.5272 31.1661 13.5272 30.0658C13.5272 28.9654 14.4206 28.0725 15.5216 28.0725H39.3188C40.4197 28.0725 41.3132 28.9654 41.3132 30.0658C41.3132 31.1661 40.4197 32.0591 39.3188 32.0591Z" fill="white"/>
<mask id="mask1_1_257" style="mask-type:alpha" maskUnits="userSpaceOnUse" x="0" y="19" width="18" height="22">
<path fill-rule="evenodd" clip-rule="evenodd" d="M17.5156 19.1057V40.571H0.354431V19.1057H17.5156Z" fill="white"/>
</mask>
<g mask="url(#mask1_1_257)">
<path d="M16.1686 40.3877C15.9172 40.3877 15.6694 40.3177 15.4503 40.1813L1.19805 31.2052C0.806544 30.9574 0.567688 30.5285 0.567688 30.0654C0.567688 29.6024 0.806544 29.1733 1.19805 28.9257L15.4503 19.9495C15.8652 19.6891 16.3896 19.673 16.8187 19.9117C17.2498 20.1486 17.5156 20.5991 17.5156 21.0892V39.0416C17.5156 39.5316 17.2498 39.9821 16.8187 40.219C16.6158 40.3321 16.3913 40.3877 16.1686 40.3877Z" fill="white"/>
</g>
</g>
<defs>
<clipPath id="clip0_1_257">
<rect width="42" height="41" fill="white"/>
</clipPath>
</defs>
</svg>
